Hangar-Regular.ufo
<glyph name="B" format="2">
	<advance width="631"/>
	<unicode hex="0042"/>
	<note>
		B
	</note>
	<outline>
		<contour>
			<point x="70" y="381" type="curve" smooth="yes"/>
			<point x="70" y="398"/>
			<point x="85" y="413"/>
			<point x="103" y="413" type="curve" smooth="yes"/>
			<point x="122" y="413"/>
			<point x="135" y="398"/>
			<point x="135" y="381" type="curve" smooth="yes"/>
			<point x="135" y="363"/>
			<point x="122" y="348"/>
			<point x="103" y="348" type="curve" smooth="yes"/>
			<point x="85" y="348"/>
			<point x="70" y="362"/>
		</contour>
		<contour>
			<point x="70" y="120" type="curve" smooth="yes"/>
			<point x="70" y="101"/>
			<point x="85" y="87"/>
			<point x="103" y="87" type="curve" smooth="yes"/>
			<point x="122" y="87"/>
			<point x="135" y="101"/>
			<point x="135" y="120" type="curve" smooth="yes"/>
			<point x="135" y="137"/>
			<point x="122" y="152"/>
			<point x="103" y="152" type="curve" smooth="yes"/>
			<point x="85" y="152"/>
			<point x="70" y="136"/>
		</contour>
		<contour>
			<point x="70" y="207" type="curve" smooth="yes"/>
			<point x="70" y="224"/>
			<point x="85" y="239"/>
			<point x="103" y="239" type="curve" smooth="yes"/>
			<point x="122" y="239"/>
			<point x="135" y="224"/>
			<point x="135" y="207" type="curve" smooth="yes"/>
			<point x="135" y="189"/>
			<point x="122" y="174"/>
			<point x="103" y="174" type="curve" smooth="yes"/>
			<point x="85" y="174"/>
			<point x="70" y="188"/>
		</contour>
		<contour>
			<point x="70" y="294" type="curve" smooth="yes"/>
			<point x="70" y="311"/>
			<point x="84" y="326"/>
			<point x="103" y="326" type="curve" smooth="yes"/>
			<point x="121" y="326"/>
			<point x="135" y="311"/>
			<point x="135" y="294" type="curve" smooth="yes"/>
			<point x="135" y="276"/>
			<point x="121" y="261"/>
			<point x="103" y="261" type="curve" smooth="yes"/>
			<point x="85" y="261"/>
			<point x="70" y="275"/>
		</contour>
		<contour>
			<point x="70" y="468" type="curve" smooth="yes"/>
			<point x="70" y="485"/>
			<point x="85" y="500"/>
			<point x="103" y="500" type="curve" smooth="yes"/>
			<point x="121" y="500"/>
			<point x="135" y="485"/>
			<point x="135" y="468" type="curve" smooth="yes"/>
			<point x="135" y="450"/>
			<point x="121" y="435"/>
			<point x="103" y="435" type="curve" smooth="yes"/>
			<point x="86" y="435"/>
			<point x="70" y="450"/>
		</contour>
		<contour>
			<point x="70" y="555" type="curve" smooth="yes"/>
			<point x="70" y="572"/>
			<point x="85" y="587"/>
			<point x="103" y="587" type="curve" smooth="yes"/>
			<point x="122" y="587"/>
			<point x="135" y="572"/>
			<point x="135" y="555" type="curve" smooth="yes"/>
			<point x="135" y="537"/>
			<point x="122" y="522"/>
			<point x="103" y="522" type="curve" smooth="yes"/>
			<point x="85" y="522"/>
			<point x="70" y="536"/>
		</contour>
		<contour>
			<point x="70" y="642" type="curve" smooth="yes"/>
			<point x="70" y="659"/>
			<point x="85" y="674"/>
			<point x="103" y="674" type="curve" smooth="yes"/>
			<point x="121" y="674"/>
			<point x="135" y="659"/>
			<point x="135" y="642" type="curve" smooth="yes"/>
			<point x="135" y="624"/>
			<point x="121" y="609"/>
			<point x="103" y="609" type="curve" smooth="yes"/>
			<point x="86" y="609"/>
			<point x="70" y="624"/>
		</contour>
		<contour>
			<point x="150" y="353" type="curve" smooth="yes"/>
			<point x="150" y="337"/>
			<point x="164" y="323"/>
			<point x="180" y="323" type="curve" smooth="yes"/>
			<point x="196" y="323"/>
			<point x="210" y="337"/>
			<point x="210" y="353" type="curve" smooth="yes"/>
			<point x="210" y="369"/>
			<point x="196" y="383"/>
			<point x="180" y="383" type="curve" smooth="yes"/>
			<point x="164" y="383"/>
			<point x="150" y="369"/>
		</contour>
		<contour>
			<point x="156" y="30" type="curve" smooth="yes"/>
			<point x="156" y="14"/>
			<point x="170" y="0"/>
			<point x="186" y="0" type="curve" smooth="yes"/>
			<point x="202" y="0"/>
			<point x="216" y="14"/>
			<point x="216" y="30" type="curve" smooth="yes"/>
			<point x="216" y="46"/>
			<point x="202" y="60"/>
			<point x="186" y="60" type="curve" smooth="yes"/>
			<point x="170" y="60"/>
			<point x="156" y="46"/>
		</contour>
		<contour>
			<point x="156" y="644" type="curve" smooth="yes"/>
			<point x="156" y="628"/>
			<point x="170" y="614"/>
			<point x="186" y="614" type="curve" smooth="yes"/>
			<point x="202" y="614"/>
			<point x="216" y="627"/>
			<point x="216" y="644" type="curve" smooth="yes"/>
			<point x="216" y="660"/>
			<point x="202" y="674"/>
			<point x="186" y="674" type="curve" smooth="yes"/>
			<point x="170" y="674"/>
			<point x="156" y="660"/>
		</contour>
		<contour>
			<point x="230" y="353" type="curve" smooth="yes"/>
			<point x="230" y="337"/>
			<point x="244" y="323"/>
			<point x="260" y="323" type="curve" smooth="yes"/>
			<point x="276" y="323"/>
			<point x="290" y="337"/>
			<point x="290" y="353" type="curve" smooth="yes"/>
			<point x="290" y="370"/>
			<point x="276" y="383"/>
			<point x="260" y="383" type="curve" smooth="yes"/>
			<point x="244" y="383"/>
			<point x="230" y="369"/>
		</contour>
		<contour>
			<point x="237" y="30" type="curve" smooth="yes"/>
			<point x="237" y="14"/>
			<point x="251" y="0"/>
			<point x="267" y="0" type="curve" smooth="yes"/>
			<point x="283" y="0"/>
			<point x="297" y="14"/>
			<point x="297" y="30" type="curve" smooth="yes"/>
			<point x="297" y="46"/>
			<point x="283" y="60"/>
			<point x="267" y="60" type="curve" smooth="yes"/>
			<point x="251" y="60"/>
			<point x="237" y="46"/>
		</contour>
		<contour>
			<point x="237" y="644" type="curve" smooth="yes"/>
			<point x="237" y="628"/>
			<point x="251" y="614"/>
			<point x="267" y="614" type="curve" smooth="yes"/>
			<point x="283" y="614"/>
			<point x="297" y="627"/>
			<point x="297" y="644" type="curve" smooth="yes"/>
			<point x="297" y="660"/>
			<point x="283" y="674"/>
			<point x="267" y="674" type="curve" smooth="yes"/>
			<point x="251" y="674"/>
			<point x="237" y="660"/>
		</contour>
		<contour>
			<point x="390" y="353" type="curve" smooth="yes"/>
			<point x="390" y="337"/>
			<point x="404" y="323"/>
			<point x="420" y="323" type="curve" smooth="yes"/>
			<point x="436" y="323"/>
			<point x="450" y="337"/>
			<point x="450" y="353" type="curve" smooth="yes"/>
			<point x="450" y="369"/>
			<point x="436" y="383"/>
			<point x="420" y="383" type="curve" smooth="yes"/>
			<point x="404" y="383"/>
			<point x="390" y="369"/>
		</contour>
		<contour>
			<point x="400" y="36" type="curve" smooth="yes"/>
			<point x="400" y="19"/>
			<point x="415" y="4"/>
			<point x="432" y="4" type="curve" smooth="yes"/>
			<point x="449" y="4"/>
			<point x="464" y="19"/>
			<point x="464" y="36" type="curve" smooth="yes"/>
			<point x="464" y="53"/>
			<point x="449" y="68"/>
			<point x="432" y="68" type="curve" smooth="yes"/>
			<point x="415" y="68"/>
			<point x="400" y="53"/>
		</contour>
		<contour>
			<point x="398" y="637" type="curve" smooth="yes"/>
			<point x="398" y="619"/>
			<point x="412" y="606"/>
			<point x="429" y="606" type="curve" smooth="yes"/>
			<point x="446" y="606"/>
			<point x="460" y="620"/>
			<point x="460" y="637" type="curve" smooth="yes"/>
			<point x="460" y="654"/>
			<point x="446" y="668"/>
			<point x="429" y="668" type="curve" smooth="yes"/>
			<point x="412" y="668"/>
			<point x="398" y="654"/>
		</contour>
		<contour>
			<point x="451" y="412" type="curve" smooth="yes"/>
			<point x="451" y="395"/>
			<point x="466" y="380"/>
			<point x="483" y="380" type="curve" smooth="yes"/>
			<point x="500" y="380"/>
			<point x="515" y="395"/>
			<point x="515" y="412" type="curve" smooth="yes"/>
			<point x="515" y="428"/>
			<point x="500" y="444"/>
			<point x="483" y="444" type="curve" smooth="yes"/>
			<point x="466" y="444"/>
			<point x="451" y="429"/>
		</contour>
		<contour>
			<point x="463" y="585" type="curve"/>
			<point x="463" y="568"/>
			<point x="478" y="553"/>
			<point x="495" y="553" type="curve" smooth="yes"/>
			<point x="512" y="553"/>
			<point x="527" y="568"/>
			<point x="527" y="585" type="curve" smooth="yes"/>
			<point x="527" y="602"/>
			<point x="513" y="617"/>
			<point x="495" y="617" type="curve" smooth="yes"/>
			<point x="478" y="617"/>
			<point x="463" y="602"/>
		</contour>
		<contour>
			<point x="459" y="317" type="curve" smooth="yes"/>
			<point x="459" y="299"/>
			<point x="474" y="284"/>
			<point x="492" y="284" type="curve" smooth="yes"/>
			<point x="510" y="284"/>
			<point x="525" y="299"/>
			<point x="525" y="317" type="curve" smooth="yes"/>
			<point x="525" y="334"/>
			<point x="510" y="350"/>
			<point x="492" y="350" type="curve" smooth="yes"/>
			<point x="474" y="350"/>
			<point x="459" y="335"/>
		</contour>
		<contour>
			<point x="473" y="498" type="curve" smooth="yes"/>
			<point x="473" y="479"/>
			<point x="489" y="463"/>
			<point x="508" y="463" type="curve" smooth="yes"/>
			<point x="527" y="463"/>
			<point x="543" y="479"/>
			<point x="543" y="498" type="curve" smooth="yes"/>
			<point x="543" y="517"/>
			<point x="527" y="533"/>
			<point x="508" y="533" type="curve" smooth="yes"/>
			<point x="489" y="533"/>
			<point x="473" y="517"/>
		</contour>
		<contour>
			<point x="511" y="157" type="curve" smooth="yes"/>
			<point x="511" y="138"/>
			<point x="527" y="122"/>
			<point x="546" y="122" type="curve" smooth="yes"/>
			<point x="565" y="122"/>
			<point x="581" y="138"/>
			<point x="581" y="157" type="curve" smooth="yes"/>
			<point x="581" y="176"/>
			<point x="565" y="192"/>
			<point x="546" y="192" type="curve" smooth="yes"/>
			<point x="527" y="192"/>
			<point x="511" y="176"/>
		</contour>
		<contour>
			<point x="508" y="245" type="curve" smooth="yes"/>
			<point x="508" y="226"/>
			<point x="524" y="210"/>
			<point x="543" y="210" type="curve" smooth="yes"/>
			<point x="562" y="210"/>
			<point x="578" y="228"/>
			<point x="578" y="245" type="curve" smooth="yes"/>
			<point x="578" y="264"/>
			<point x="562" y="280"/>
			<point x="543" y="280" type="curve" smooth="yes"/>
			<point x="524" y="280"/>
			<point x="508" y="264"/>
		</contour>
		<contour>
			<point x="310" y="353" type="curve" smooth="yes"/>
			<point x="310" y="337"/>
			<point x="324" y="323"/>
			<point x="340" y="323" type="curve" smooth="yes"/>
			<point x="356" y="323"/>
			<point x="370" y="337"/>
			<point x="370" y="353" type="curve" smooth="yes"/>
			<point x="370" y="370"/>
			<point x="356" y="383"/>
			<point x="340" y="383" type="curve" smooth="yes"/>
			<point x="324" y="383"/>
			<point x="310" y="369"/>
		</contour>
		<contour>
			<point x="318" y="30" type="curve" smooth="yes"/>
			<point x="318" y="14"/>
			<point x="332" y="0"/>
			<point x="348" y="0" type="curve" smooth="yes"/>
			<point x="364" y="0"/>
			<point x="378" y="14"/>
			<point x="378" y="30" type="curve" smooth="yes"/>
			<point x="378" y="46"/>
			<point x="364" y="60"/>
			<point x="348" y="60" type="curve" smooth="yes"/>
			<point x="332" y="60"/>
			<point x="318" y="46"/>
		</contour>
		<contour>
			<point x="318" y="644" type="curve" smooth="yes"/>
			<point x="318" y="628"/>
			<point x="332" y="614"/>
			<point x="348" y="614" type="curve" smooth="yes"/>
			<point x="364" y="614"/>
			<point x="378" y="628"/>
			<point x="378" y="644" type="curve" smooth="yes"/>
			<point x="378" y="660"/>
			<point x="364" y="674"/>
			<point x="348" y="674" type="curve" smooth="yes"/>
			<point x="332" y="674"/>
			<point x="318" y="660"/>
		</contour>
		<contour>
			<point x="70" y="33" type="curve" smooth="yes"/>
			<point x="70" y="14"/>
			<point x="85" y="0"/>
			<point x="103" y="0" type="curve" smooth="yes"/>
			<point x="122" y="0"/>
			<point x="135" y="14"/>
			<point x="135" y="33" type="curve" smooth="yes"/>
			<point x="135" y="50"/>
			<point x="122" y="65"/>
			<point x="103" y="65" type="curve" smooth="yes"/>
			<point x="85" y="65"/>
			<point x="70" y="49"/>
		</contour>
		<contour>
			<point x="472" y="79" type="curve" smooth="yes"/>
			<point x="472" y="61"/>
			<point x="487" y="46"/>
			<point x="505" y="46" type="curve" smooth="yes"/>
			<point x="523" y="46"/>
			<point x="538" y="61"/>
			<point x="538" y="79" type="curve" smooth="yes"/>
			<point x="538" y="97"/>
			<point x="523" y="112"/>
			<point x="505" y="112" type="curve" smooth="yes"/>
			<point x="487" y="112"/>
			<point x="472" y="97"/>
		</contour>
	</outline>
</glyph>
<glyph name="C" format="2">
	<advance width="633"/>
	<unicode hex="0043"/>
	<outline>
		<contour>
			<point x="0" y="0"/>
		</contour>
		<contour>
			<point x="0" y="0"/>
		</contour>
		<contour>
			<point x="357" y="658" type="curve" smooth="yes"/>
			<point x="357" y="675"/>
			<point x="370" y="688"/>
			<point x="387" y="688" type="curve" smooth="yes"/>
			<point x="404" y="688"/>
			<point x="417" y="675"/>
			<point x="417" y="658" type="curve" smooth="yes"/>
			<point x="417" y="641"/>
			<point x="404" y="628"/>
			<point x="387" y="628" type="curve" smooth="yes"/>
			<point x="370" y="628"/>
			<point x="357" y="641"/>
		</contour>
		<contour>
			<point x="437" y="628" type="curve" smooth="yes"/>
			<point x="437" y="644"/>
			<point x="451" y="658"/>
			<point x="467" y="658" type="curve" smooth="yes"/>
			<point x="484" y="658"/>
			<point x="497" y="644"/>
			<point x="497" y="628" type="curve" smooth="yes"/>
			<point x="497" y="611"/>
			<point x="484" y="598"/>
			<point x="467" y="598" type="curve" smooth="yes"/>
			<point x="451" y="598"/>
			<point x="437" y="611"/>
		</contour>
		<contour>
			<point x="497" y="569" type="curve" smooth="yes"/>
			<point x="497" y="553"/>
			<point x="511" y="539"/>
			<point x="527" y="539" type="curve" smooth="yes"/>
			<point x="543" y="539"/>
			<point x="557" y="553"/>
			<point x="557" y="569" type="curve" smooth="yes"/>
			<point x="557" y="584"/>
			<point x="543" y="599"/>
			<point x="527" y="599" type="curve" smooth="yes"/>
			<point x="511" y="599"/>
			<point x="497" y="584"/>
		</contour>
		<contour>
			<point x="333" y="658" type="curve" smooth="yes"/>
			<point x="333" y="641"/>
			<point x="320" y="628"/>
			<point x="303" y="628" type="curve" smooth="yes"/>
			<point x="286" y="628"/>
			<point x="273" y="641"/>
			<point x="273" y="658" type="curve" smooth="yes"/>
			<point x="273" y="675"/>
			<point x="286" y="688"/>
			<point x="303" y="688" type="curve" smooth="yes"/>
			<point x="320" y="688"/>
			<point x="333" y="675"/>
		</contour>
		<contour>
			<point x="253" y="625" type="curve" smooth="yes"/>
			<point x="253" y="606"/>
			<point x="238" y="592"/>
			<point x="220" y="592" type="curve" smooth="yes"/>
			<point x="201" y="592"/>
			<point x="187" y="606"/>
			<point x="187" y="625" type="curve" smooth="yes"/>
			<point x="187" y="643"/>
			<point x="201" y="658"/>
			<point x="220" y="658" type="curve" smooth="yes"/>
			<point x="238" y="658"/>
			<point x="253" y="643"/>
		</contour>
		<contour>
			<point x="188" y="560" type="curve" smooth="yes"/>
			<point x="188" y="577"/>
			<point x="173" y="593"/>
			<point x="155" y="593" type="curve" smooth="yes"/>
			<point x="137" y="593"/>
			<point x="122" y="577"/>
			<point x="122" y="560" type="curve" smooth="yes"/>
			<point x="122" y="542"/>
			<point x="137" y="527"/>
			<point x="155" y="527" type="curve" smooth="yes"/>
			<point x="173" y="527"/>
			<point x="188" y="542"/>
		</contour>
		<contour>
			<point x="152" y="477" type="curve" smooth="yes"/>
			<point x="152" y="496"/>
			<point x="136" y="511"/>
			<point x="116" y="511" type="curve" smooth="yes"/>
			<point x="96" y="511"/>
			<point x="82" y="496"/>
			<point x="82" y="477" type="curve" smooth="yes"/>
			<point x="82" y="458"/>
			<point x="96" y="442"/>
			<point x="116" y="442" type="curve" smooth="yes"/>
			<point x="136" y="442"/>
			<point x="152" y="458"/>
		</contour>
		<contour>
			<point x="100" y="349" type="curve" smooth="yes"/>
			<point x="119" y="349"/>
			<point x="135" y="365"/>
			<point x="135" y="384" type="curve" smooth="yes"/>
			<point x="135" y="403"/>
			<point x="119" y="419"/>
			<point x="100" y="419" type="curve" smooth="yes"/>
			<point x="81" y="419"/>
			<point x="65" y="403"/>
			<point x="65" y="384" type="curve" smooth="yes"/>
			<point x="65" y="365"/>
			<point x="81" y="349"/>
		</contour>
		<contour>
			<point x="357" y="16" type="curve" smooth="yes"/>
			<point x="357" y="33"/>
			<point x="370" y="46"/>
			<point x="387" y="46" type="curve" smooth="yes"/>
			<point x="404" y="46"/>
			<point x="417" y="33"/>
			<point x="417" y="16" type="curve" smooth="yes"/>
			<point x="417" y="-1"/>
			<point x="404" y="-14"/>
			<point x="387" y="-14" type="curve" smooth="yes"/>
			<point x="370" y="-14"/>
			<point x="357" y="-1"/>
		</contour>
		<contour>
			<point x="438" y="49" type="curve" smooth="yes"/>
			<point x="438" y="67"/>
			<point x="453" y="81"/>
			<point x="470" y="81" type="curve" smooth="yes"/>
			<point x="488" y="81"/>
			<point x="502" y="67"/>
			<point x="502" y="49" type="curve" smooth="yes"/>
			<point x="502" y="32"/>
			<point x="488" y="17"/>
			<point x="470" y="17" type="curve" smooth="yes"/>
			<point x="453" y="17"/>
			<point x="438" y="32"/>
		</contour>
		<contour>
			<point x="503" y="112" type="curve" smooth="yes"/>
			<point x="503" y="97"/>
			<point x="517" y="82"/>
			<point x="533" y="82" type="curve" smooth="yes"/>
			<point x="549" y="82"/>
			<point x="563" y="97"/>
			<point x="563" y="112" type="curve" smooth="yes"/>
			<point x="563" y="127"/>
			<point x="549" y="142"/>
			<point x="533" y="142" type="curve" smooth="yes"/>
			<point x="517" y="142"/>
			<point x="503" y="128"/>
		</contour>
		<contour>
			<point x="333" y="16" type="curve" smooth="yes"/>
			<point x="333" y="-1"/>
			<point x="320" y="-14"/>
			<point x="303" y="-14" type="curve" smooth="yes"/>
			<point x="286" y="-14"/>
			<point x="273" y="-1"/>
			<point x="273" y="16" type="curve" smooth="yes"/>
			<point x="273" y="33"/>
			<point x="286" y="46"/>
			<point x="303" y="46" type="curve" smooth="yes"/>
			<point x="320" y="46"/>
			<point x="333" y="33"/>
		</contour>
		<contour>
			<point x="253" y="49" type="curve" smooth="yes"/>
			<point x="253" y="31"/>
			<point x="238" y="16"/>
			<point x="220" y="16" type="curve" smooth="yes"/>
			<point x="201" y="16"/>
			<point x="187" y="31"/>
			<point x="187" y="49" type="curve" smooth="yes"/>
			<point x="187" y="68"/>
			<point x="201" y="82"/>
			<point x="220" y="82" type="curve" smooth="yes"/>
			<point x="238" y="82"/>
			<point x="253" y="68"/>
		</contour>
		<contour>
			<point x="188" y="114" type="curve" smooth="yes"/>
			<point x="188" y="132"/>
			<point x="173" y="147"/>
			<point x="155" y="147" type="curve" smooth="yes"/>
			<point x="137" y="147"/>
			<point x="122" y="132"/>
			<point x="122" y="114" type="curve" smooth="yes"/>
			<point x="122" y="97"/>
			<point x="137" y="81"/>
			<point x="155" y="81" type="curve" smooth="yes"/>
			<point x="173" y="81"/>
			<point x="188" y="97"/>
		</contour>
		<contour>
			<point x="152" y="197" type="curve" smooth="yes"/>
			<point x="152" y="216"/>
			<point x="136" y="232"/>
			<point x="116" y="232" type="curve" smooth="yes"/>
			<point x="96" y="232"/>
			<point x="82" y="216"/>
			<point x="82" y="197" type="curve" smooth="yes"/>
			<point x="82" y="178"/>
			<point x="96" y="163"/>
			<point x="116" y="163" type="curve" smooth="yes"/>
			<point x="136" y="163"/>
			<point x="152" y="178"/>
		</contour>
		<contour>
			<point x="100" y="325" type="curve" smooth="yes"/>
			<point x="81" y="325"/>
			<point x="65" y="309"/>
			<point x="65" y="290" type="curve" smooth="yes"/>
			<point x="65" y="271"/>
			<point x="81" y="255"/>
			<point x="100" y="255" type="curve" smooth="yes"/>
			<point x="119" y="255"/>
			<point x="135" y="271"/>
			<point x="135" y="290" type="curve" smooth="yes"/>
			<point x="135" y="309"/>
			<point x="119" y="325"/>
		</contour>
		<contour>
			<point x="497" y="487" type="curve" smooth="yes"/>
			<point x="497" y="471"/>
			<point x="511" y="457"/>
			<point x="527" y="457" type="curve" smooth="yes"/>
			<point x="543" y="457"/>
			<point x="557" y="471"/>
			<point x="557" y="487" type="curve" smooth="yes"/>
			<point x="557" y="502"/>
			<point x="543" y="517"/>
			<point x="527" y="517" type="curve" smooth="yes"/>
			<point x="511" y="517"/>
			<point x="497" y="502"/>
		</contour>
	</outline>
</glyph>
<glyph name="D" format="2">
	<advance width="650"/>
	<unicode hex="0044"/>
	<outline>
		<contour>
			<point x="0" y="0"/>
		</contour>
		<contour>
			<point x="70" y="381" type="curve" smooth="yes"/>
			<point x="70" y="398"/>
			<point x="85" y="413"/>
			<point x="103" y="413" type="curve" smooth="yes"/>
			<point x="122" y="413"/>
			<point x="135" y="398"/>
			<point x="135" y="381" type="curve" smooth="yes"/>
			<point x="135" y="363"/>
			<point x="122" y="348"/>
			<point x="103" y="348" type="curve" smooth="yes"/>
			<point x="85" y="348"/>
			<point x="70" y="362"/>
		</contour>
		<contour>
			<point x="70" y="120" type="curve" smooth="yes"/>
			<point x="70" y="101"/>
			<point x="85" y="87"/>
			<point x="103" y="87" type="curve" smooth="yes"/>
			<point x="122" y="87"/>
			<point x="135" y="101"/>
			<point x="135" y="120" type="curve" smooth="yes"/>
			<point x="135" y="137"/>
			<point x="122" y="152"/>
			<point x="103" y="152" type="curve" smooth="yes"/>
			<point x="85" y="152"/>
			<point x="70" y="136"/>
		</contour>
		<contour>
			<point x="70" y="207" type="curve" smooth="yes"/>
			<point x="70" y="224"/>
			<point x="85" y="239"/>
			<point x="103" y="239" type="curve" smooth="yes"/>
			<point x="122" y="239"/>
			<point x="135" y="224"/>
			<point x="135" y="207" type="curve" smooth="yes"/>
			<point x="135" y="189"/>
			<point x="122" y="174"/>
			<point x="103" y="174" type="curve" smooth="yes"/>
			<point x="85" y="174"/>
			<point x="70" y="188"/>
		</contour>
		<contour>
			<point x="70" y="294" type="curve" smooth="yes"/>
			<point x="70" y="311"/>
			<point x="84" y="326"/>
			<point x="103" y="326" type="curve" smooth="yes"/>
			<point x="121" y="326"/>
			<point x="135" y="311"/>
			<point x="135" y="294" type="curve" smooth="yes"/>
			<point x="135" y="276"/>
			<point x="121" y="261"/>
			<point x="103" y="261" type="curve" smooth="yes"/>
			<point x="85" y="261"/>
			<point x="70" y="275"/>
		</contour>
		<contour>
			<point x="70" y="468" type="curve" smooth="yes"/>
			<point x="70" y="485"/>
			<point x="85" y="500"/>
			<point x="103" y="500" type="curve" smooth="yes"/>
			<point x="121" y="500"/>
			<point x="135" y="485"/>
			<point x="135" y="468" type="curve" smooth="yes"/>
			<point x="135" y="450"/>
			<point x="121" y="435"/>
			<point x="103" y="435" type="curve" smooth="yes"/>
			<point x="86" y="435"/>
			<point x="70" y="450"/>
		</contour>
		<contour>
			<point x="70" y="555" type="curve" smooth="yes"/>
			<point x="70" y="572"/>
			<point x="85" y="587"/>
			<point x="103" y="587" type="curve" smooth="yes"/>
			<point x="122" y="587"/>
			<point x="135" y="572"/>
			<point x="135" y="555" type="curve" smooth="yes"/>
			<point x="135" y="537"/>
			<point x="122" y="522"/>
			<point x="103" y="522" type="curve" smooth="yes"/>
			<point x="85" y="522"/>
			<point x="70" y="536"/>
		</contour>
		<contour>
			<point x="70" y="642" type="curve" smooth="yes"/>
			<point x="70" y="659"/>
			<point x="85" y="674"/>
			<point x="103" y="674" type="curve" smooth="yes"/>
			<point x="121" y="674"/>
			<point x="135" y="659"/>
			<point x="135" y="642" type="curve" smooth="yes"/>
			<point x="135" y="624"/>
			<point x="121" y="609"/>
			<point x="103" y="609" type="curve" smooth="yes"/>
			<point x="86" y="609"/>
			<point x="70" y="624"/>
		</contour>
		<contour>
			<point x="70" y="33" type="curve" smooth="yes"/>
			<point x="70" y="14"/>
			<point x="85" y="0"/>
			<point x="103" y="0" type="curve" smooth="yes"/>
			<point x="122" y="0"/>
			<point x="135" y="14"/>
			<point x="135" y="33" type="curve" smooth="yes"/>
			<point x="135" y="50"/>
			<point x="122" y="65"/>
			<point x="103" y="65" type="curve" smooth="yes"/>
			<point x="85" y="65"/>
			<point x="70" y="49"/>
		</contour>
		<contour>
			<point x="317" y="34" type="curve" smooth="yes"/>
			<point x="317" y="51"/>
			<point x="330" y="64"/>
			<point x="347" y="64" type="curve" smooth="yes"/>
			<point x="364" y="64"/>
			<point x="377" y="51"/>
			<point x="377" y="34" type="curve" smooth="yes"/>
			<point x="377" y="17"/>
			<point x="364" y="4"/>
			<point x="347" y="4" type="curve" smooth="yes"/>
			<point x="330" y="4"/>
			<point x="317" y="17"/>
		</contour>
		<contour>
			<point x="395" y="59" type="curve" smooth="yes"/>
			<point x="395" y="78"/>
			<point x="410" y="92"/>
			<point x="428" y="92" type="curve" smooth="yes"/>
			<point x="447" y="92"/>
			<point x="461" y="78"/>
			<point x="461" y="59" type="curve" smooth="yes"/>
			<point x="461" y="41"/>
			<point x="447" y="26"/>
			<point x="428" y="26" type="curve" smooth="yes"/>
			<point x="410" y="26"/>
			<point x="395" y="41"/>
		</contour>
		<contour>
			<point x="460" y="120" type="curve" smooth="yes"/>
			<point x="460" y="103"/>
			<point x="475" y="87"/>
			<point x="493" y="87" type="curve" smooth="yes"/>
			<point x="512" y="87"/>
			<point x="526" y="103"/>
			<point x="526" y="120" type="curve" smooth="yes"/>
			<point x="526" y="138"/>
			<point x="511" y="153"/>
			<point x="493" y="153" type="curve" smooth="yes"/>
			<point x="475" y="153"/>
			<point x="460" y="138"/>
		</contour>
		<contour>
			<point x="550" y="326" type="curve" smooth="yes"/>
			<point x="531" y="326"/>
			<point x="515" y="310"/>
			<point x="515" y="291" type="curve" smooth="yes"/>
			<point x="515" y="272"/>
			<point x="531" y="256"/>
			<point x="550" y="256" type="curve" smooth="yes"/>
			<point x="569" y="256"/>
			<point x="585" y="272"/>
			<point x="585" y="291" type="curve" smooth="yes"/>
			<point x="585" y="310"/>
			<point x="569" y="326"/>
		</contour>
		<contour>
			<point x="155" y="30" type="curve" smooth="yes"/>
			<point x="155" y="14"/>
			<point x="169" y="0"/>
			<point x="185" y="0" type="curve" smooth="yes"/>
			<point x="201" y="0"/>
			<point x="215" y="14"/>
			<point x="215" y="30" type="curve" smooth="yes"/>
			<point x="215" y="46"/>
			<point x="201" y="60"/>
			<point x="185" y="60" type="curve" smooth="yes"/>
			<point x="169" y="60"/>
			<point x="155" y="46"/>
		</contour>
		<contour>
			<point x="235" y="30" type="curve" smooth="yes"/>
			<point x="235" y="14"/>
			<point x="249" y="0"/>
			<point x="265" y="0" type="curve" smooth="yes"/>
			<point x="281" y="0"/>
			<point x="295" y="14"/>
			<point x="295" y="30" type="curve" smooth="yes"/>
			<point x="295" y="46"/>
			<point x="281" y="60"/>
			<point x="265" y="60" type="curve" smooth="yes"/>
			<point x="249" y="60"/>
			<point x="235" y="46"/>
		</contour>
		<contour>
			<point x="534" y="165" type="curve" smooth="yes"/>
			<point x="553" y="165"/>
			<point x="569" y="181"/>
			<point x="569" y="200" type="curve" smooth="yes"/>
			<point x="569" y="219"/>
			<point x="553" y="235"/>
			<point x="534" y="235" type="curve" smooth="yes"/>
			<point x="515" y="235"/>
			<point x="499" y="219"/>
			<point x="499" y="200" type="curve" smooth="yes"/>
			<point x="499" y="181"/>
			<point x="515" y="165"/>
		</contour>
		<contour>
			<point x="317" y="640" type="curve" smooth="yes"/>
			<point x="317" y="657"/>
			<point x="330" y="670"/>
			<point x="347" y="670" type="curve" smooth="yes"/>
			<point x="364" y="670"/>
			<point x="377" y="657"/>
			<point x="377" y="640" type="curve" smooth="yes"/>
			<point x="377" y="623"/>
			<point x="364" y="610"/>
			<point x="347" y="610" type="curve" smooth="yes"/>
			<point x="330" y="610"/>
			<point x="317" y="623"/>
		</contour>
		<contour>
			<point x="395" y="615" type="curve" smooth="yes"/>
			<point x="395" y="633"/>
			<point x="410" y="648"/>
			<point x="428" y="648" type="curve" smooth="yes"/>
			<point x="447" y="648"/>
			<point x="461" y="633"/>
			<point x="461" y="615" type="curve" smooth="yes"/>
			<point x="461" y="596"/>
			<point x="447" y="582"/>
			<point x="428" y="582" type="curve" smooth="yes"/>
			<point x="410" y="582"/>
			<point x="395" y="596"/>
		</contour>
		<contour>
			<point x="460" y="554" type="curve" smooth="yes"/>
			<point x="460" y="536"/>
			<point x="475" y="521"/>
			<point x="493" y="521" type="curve" smooth="yes"/>
			<point x="511" y="521"/>
			<point x="526" y="536"/>
			<point x="526" y="554" type="curve" smooth="yes"/>
			<point x="526" y="571"/>
			<point x="512" y="587"/>
			<point x="493" y="587" type="curve" smooth="yes"/>
			<point x="475" y="587"/>
			<point x="460" y="571"/>
		</contour>
		<contour>
			<point x="550" y="348" type="curve" smooth="yes"/>
			<point x="569" y="348"/>
			<point x="585" y="364"/>
			<point x="585" y="383" type="curve" smooth="yes"/>
			<point x="585" y="402"/>
			<point x="569" y="418"/>
			<point x="550" y="418" type="curve" smooth="yes"/>
			<point x="531" y="418"/>
			<point x="515" y="402"/>
			<point x="515" y="383" type="curve" smooth="yes"/>
			<point x="515" y="364"/>
			<point x="531" y="348"/>
		</contour>
		<contour>
			<point x="155" y="644" type="curve" smooth="yes"/>
			<point x="155" y="628"/>
			<point x="169" y="614"/>
			<point x="185" y="614" type="curve" smooth="yes"/>
			<point x="201" y="614"/>
			<point x="215" y="628"/>
			<point x="215" y="644" type="curve" smooth="yes"/>
			<point x="215" y="660"/>
			<point x="201" y="674"/>
			<point x="185" y="674" type="curve" smooth="yes"/>
			<point x="169" y="674"/>
			<point x="155" y="660"/>
		</contour>
		<contour>
			<point x="235" y="644" type="curve" smooth="yes"/>
			<point x="235" y="628"/>
			<point x="249" y="614"/>
			<point x="265" y="614" type="curve" smooth="yes"/>
			<point x="281" y="614"/>
			<point x="295" y="628"/>
			<point x="295" y="644" type="curve" smooth="yes"/>
			<point x="295" y="660"/>
			<point x="281" y="674"/>
			<point x="265" y="674" type="curve" smooth="yes"/>
			<point x="249" y="674"/>
			<point x="235" y="660"/>
		</contour>
		<contour>
			<point x="534" y="509" type="curve" smooth="yes"/>
			<point x="515" y="509"/>
			<point x="499" y="493"/>
			<point x="499" y="474" type="curve" smooth="yes"/>
			<point x="499" y="455"/>
			<point x="515" y="439"/>
			<point x="534" y="439" type="curve" smooth="yes"/>
			<point x="554" y="439"/>
			<point x="569" y="455"/>
			<point x="569" y="474" type="curve" smooth="yes"/>
			<point x="569" y="493"/>
			<point x="553" y="509"/>
		</contour>
	</outline>
</glyph>
<glyph name="G" format="2">
	<advance width="638"/>
	<unicode hex="0047"/>
	<outline>
		<contour>
			<point x="357" y="658" type="curve" smooth="yes"/>
			<point x="357" y="675"/>
			<point x="370" y="688"/>
			<point x="387" y="688" type="curve" smooth="yes"/>
			<point x="404" y="688"/>
			<point x="417" y="675"/>
			<point x="417" y="658" type="curve" smooth="yes"/>
			<point x="417" y="641"/>
			<point x="404" y="628"/>
			<point x="387" y="628" type="curve" smooth="yes"/>
			<point x="370" y="628"/>
			<point x="357" y="641"/>
		</contour>
		<contour>
			<point x="437" y="628" type="curve" smooth="yes"/>
			<point x="437" y="644"/>
			<point x="451" y="658"/>
			<point x="467" y="658" type="curve" smooth="yes"/>
			<point x="484" y="658"/>
			<point x="497" y="644"/>
			<point x="497" y="628" type="curve" smooth="yes"/>
			<point x="497" y="611"/>
			<point x="484" y="598"/>
			<point x="467" y="598" type="curve" smooth="yes"/>
			<point x="451" y="598"/>
			<point x="437" y="611"/>
		</contour>
		<contour>
			<point x="497" y="569" type="curve" smooth="yes"/>
			<point x="497" y="553"/>
			<point x="511" y="539"/>
			<point x="527" y="539" type="curve" smooth="yes"/>
			<point x="543" y="539"/>
			<point x="557" y="553"/>
			<point x="557" y="569" type="curve" smooth="yes"/>
			<point x="557" y="584"/>
			<point x="543" y="599"/>
			<point x="527" y="599" type="curve" smooth="yes"/>
			<point x="511" y="599"/>
			<point x="497" y="584"/>
		</contour>
		<contour>
			<point x="333" y="658" type="curve" smooth="yes"/>
			<point x="333" y="641"/>
			<point x="320" y="628"/>
			<point x="303" y="628" type="curve" smooth="yes"/>
			<point x="286" y="628"/>
			<point x="273" y="641"/>
			<point x="273" y="658" type="curve" smooth="yes"/>
			<point x="273" y="675"/>
			<point x="286" y="688"/>
			<point x="303" y="688" type="curve" smooth="yes"/>
			<point x="320" y="688"/>
			<point x="333" y="675"/>
		</contour>
		<contour>
			<point x="253" y="625" type="curve" smooth="yes"/>
			<point x="253" y="606"/>
			<point x="238" y="592"/>
			<point x="220" y="592" type="curve" smooth="yes"/>
			<point x="201" y="592"/>
			<point x="187" y="606"/>
			<point x="187" y="625" type="curve" smooth="yes"/>
			<point x="187" y="643"/>
			<point x="201" y="658"/>
			<point x="220" y="658" type="curve" smooth="yes"/>
			<point x="238" y="658"/>
			<point x="253" y="643"/>
		</contour>
		<contour>
			<point x="188" y="560" type="curve" smooth="yes"/>
			<point x="188" y="577"/>
			<point x="173" y="593"/>
			<point x="155" y="593" type="curve" smooth="yes"/>
			<point x="137" y="593"/>
			<point x="122" y="577"/>
			<point x="122" y="560" type="curve" smooth="yes"/>
			<point x="122" y="542"/>
			<point x="137" y="527"/>
			<point x="155" y="527" type="curve" smooth="yes"/>
			<point x="173" y="527"/>
			<point x="188" y="542"/>
		</contour>
		<contour>
			<point x="152" y="477" type="curve" smooth="yes"/>
			<point x="152" y="496"/>
			<point x="136" y="511"/>
			<point x="116" y="511" type="curve" smooth="yes"/>
			<point x="96" y="511"/>
			<point x="82" y="496"/>
			<point x="82" y="477" type="curve" smooth="yes"/>
			<point x="82" y="458"/>
			<point x="96" y="442"/>
			<point x="116" y="442" type="curve" smooth="yes"/>
			<point x="136" y="442"/>
			<point x="152" y="458"/>
		</contour>
		<contour>
			<point x="100" y="349" type="curve" smooth="yes"/>
			<point x="119" y="349"/>
			<point x="135" y="365"/>
			<point x="135" y="384" type="curve" smooth="yes"/>
			<point x="135" y="403"/>
			<point x="119" y="419"/>
			<point x="100" y="419" type="curve" smooth="yes"/>
			<point x="81" y="419"/>
			<point x="65" y="403"/>
			<point x="65" y="384" type="curve" smooth="yes"/>
			<point x="65" y="365"/>
			<point x="81" y="349"/>
		</contour>
		<contour>
			<point x="357" y="16" type="curve" smooth="yes"/>
			<point x="357" y="33"/>
			<point x="370" y="46"/>
			<point x="387" y="46" type="curve" smooth="yes"/>
			<point x="404" y="46"/>
			<point x="417" y="33"/>
			<point x="417" y="16" type="curve" smooth="yes"/>
			<point x="417" y="-1"/>
			<point x="404" y="-14"/>
			<point x="387" y="-14" type="curve" smooth="yes"/>
			<point x="370" y="-14"/>
			<point x="357" y="-1"/>
		</contour>
		<contour>
			<point x="438" y="49" type="curve" smooth="yes"/>
			<point x="438" y="67"/>
			<point x="453" y="81"/>
			<point x="470" y="81" type="curve" smooth="yes"/>
			<point x="488" y="81"/>
			<point x="502" y="67"/>
			<point x="502" y="49" type="curve" smooth="yes"/>
			<point x="502" y="32"/>
			<point x="488" y="17"/>
			<point x="470" y="17" type="curve" smooth="yes"/>
			<point x="453" y="17"/>
			<point x="438" y="32"/>
		</contour>
		<contour>
			<point x="502" y="114" type="curve" smooth="yes"/>
			<point x="502" y="97"/>
			<point x="517" y="81"/>
			<point x="535" y="81" type="curve" smooth="yes"/>
			<point x="553" y="81"/>
			<point x="568" y="97"/>
			<point x="568" y="114" type="curve" smooth="yes"/>
			<point x="568" y="131"/>
			<point x="553" y="147"/>
			<point x="535" y="147" type="curve" smooth="yes"/>
			<point x="517" y="147"/>
			<point x="502" y="132"/>
		</contour>
		<contour>
			<point x="333" y="16" type="curve" smooth="yes"/>
			<point x="333" y="-1"/>
			<point x="320" y="-14"/>
			<point x="303" y="-14" type="curve" smooth="yes"/>
			<point x="286" y="-14"/>
			<point x="273" y="-1"/>
			<point x="273" y="16" type="curve" smooth="yes"/>
			<point x="273" y="33"/>
			<point x="286" y="46"/>
			<point x="303" y="46" type="curve" smooth="yes"/>
			<point x="320" y="46"/>
			<point x="333" y="33"/>
		</contour>
		<contour>
			<point x="253" y="49" type="curve" smooth="yes"/>
			<point x="253" y="31"/>
			<point x="238" y="16"/>
			<point x="220" y="16" type="curve" smooth="yes"/>
			<point x="201" y="16"/>
			<point x="187" y="31"/>
			<point x="187" y="49" type="curve" smooth="yes"/>
			<point x="187" y="68"/>
			<point x="201" y="82"/>
			<point x="220" y="82" type="curve" smooth="yes"/>
			<point x="238" y="82"/>
			<point x="253" y="68"/>
		</contour>
		<contour>
			<point x="188" y="114" type="curve" smooth="yes"/>
			<point x="188" y="132"/>
			<point x="173" y="147"/>
			<point x="155" y="147" type="curve" smooth="yes"/>
			<point x="137" y="147"/>
			<point x="122" y="132"/>
			<point x="122" y="114" type="curve" smooth="yes"/>
			<point x="122" y="97"/>
			<point x="137" y="81"/>
			<point x="155" y="81" type="curve" smooth="yes"/>
			<point x="173" y="81"/>
			<point x="188" y="97"/>
		</contour>
		<contour>
			<point x="152" y="197" type="curve" smooth="yes"/>
			<point x="152" y="216"/>
			<point x="136" y="232"/>
			<point x="116" y="232" type="curve" smooth="yes"/>
			<point x="96" y="232"/>
			<point x="82" y="216"/>
			<point x="82" y="197" type="curve" smooth="yes"/>
			<point x="82" y="178"/>
			<point x="96" y="163"/>
			<point x="116" y="163" type="curve" smooth="yes"/>
			<point x="136" y="163"/>
			<point x="152" y="178"/>
		</contour>
		<contour>
			<point x="100" y="325" type="curve" smooth="yes"/>
			<point x="81" y="325"/>
			<point x="65" y="309"/>
			<point x="65" y="290" type="curve" smooth="yes"/>
			<point x="65" y="271"/>
			<point x="81" y="255"/>
			<point x="100" y="255" type="curve" smooth="yes"/>
			<point x="119" y="255"/>
			<point x="135" y="271"/>
			<point x="135" y="290" type="curve" smooth="yes"/>
			<point x="135" y="309"/>
			<point x="119" y="325"/>
		</contour>
		<contour>
			<point x="502" y="202" type="curve" smooth="yes"/>
			<point x="502" y="185"/>
			<point x="517" y="169"/>
			<point x="535" y="169" type="curve" smooth="yes"/>
			<point x="553" y="169"/>
			<point x="568" y="185"/>
			<point x="568" y="202" type="curve" smooth="yes"/>
			<point x="568" y="219"/>
			<point x="553" y="235"/>
			<point x="535" y="235" type="curve" smooth="yes"/>
			<point x="517" y="235"/>
			<point x="502" y="220"/>
		</contour>
		<contour>
			<point x="502" y="290" type="curve" smooth="yes"/>
			<point x="502" y="273"/>
			<point x="517" y="257"/>
			<point x="535" y="257" type="curve" smooth="yes"/>
			<point x="553" y="257"/>
			<point x="568" y="273"/>
			<point x="568" y="290" type="curve" smooth="yes"/>
			<point x="568" y="307"/>
			<point x="553" y="323"/>
			<point x="535" y="323" type="curve" smooth="yes"/>
			<point x="517" y="323"/>
			<point x="502" y="308"/>
		</contour>
		<contour>
			<point x="420" y="293" type="curve" smooth="yes"/>
			<point x="420" y="278"/>
			<point x="434" y="263"/>
			<point x="450" y="263" type="curve" smooth="yes"/>
			<point x="466" y="263"/>
			<point x="480" y="278"/>
			<point x="480" y="293" type="curve" smooth="yes"/>
			<point x="480" y="308"/>
			<point x="466" y="323"/>
			<point x="450" y="323" type="curve" smooth="yes"/>
			<point x="434" y="323"/>
			<point x="420" y="309"/>
		</contour>
		<contour>
			<point x="338" y="293" type="curve" smooth="yes"/>
			<point x="338" y="278"/>
			<point x="352" y="263"/>
			<point x="368" y="263" type="curve" smooth="yes"/>
			<point x="384" y="263"/>
			<point x="398" y="278"/>
			<point x="398" y="293" type="curve" smooth="yes"/>
			<point x="398" y="308"/>
			<point x="384" y="323"/>
			<point x="368" y="323" type="curve" smooth="yes"/>
			<point x="352" y="323"/>
			<point x="338" y="309"/>
		</contour>
		<contour>
			<point x="497" y="487" type="curve" smooth="yes"/>
			<point x="497" y="471"/>
			<point x="511" y="457"/>
			<point x="527" y="457" type="curve" smooth="yes"/>
			<point x="543" y="457"/>
			<point x="557" y="471"/>
			<point x="557" y="487" type="curve" smooth="yes"/>
			<point x="557" y="502"/>
			<point x="543" y="517"/>
			<point x="527" y="517" type="curve" smooth="yes"/>
			<point x="511" y="517"/>
			<point x="497" y="502"/>
		</contour>
	</outline>
</glyph>
<glyph name="H" format="2">
	<advance width="630"/>
	<unicode hex="0048"/>
	<note>
		H
	</note>
	<outline>
		<contour>
			<point x="70" y="381" type="curve" smooth="yes"/>
			<point x="70" y="398"/>
			<point x="85" y="413"/>
			<point x="103" y="413" type="curve" smooth="yes"/>
			<point x="122" y="413"/>
			<point x="135" y="398"/>
			<point x="135" y="381" type="curve" smooth="yes"/>
			<point x="135" y="363"/>
			<point x="122" y="348"/>
			<point x="103" y="348" type="curve" smooth="yes"/>
			<point x="85" y="348"/>
			<point x="70" y="362"/>
		</contour>
		<contour>
			<point x="70" y="33" type="curve" smooth="yes"/>
			<point x="70" y="15"/>
			<point x="85" y="1"/>
			<point x="103" y="0" type="curve" smooth="yes"/>
			<point x="122" y="0"/>
			<point x="135" y="15"/>
			<point x="135" y="33" type="curve" smooth="yes"/>
			<point x="135" y="51"/>
			<point x="122" y="65"/>
			<point x="103" y="65" type="curve" smooth="yes"/>
			<point x="85" y="65"/>
			<point x="70" y="51"/>
		</contour>
		<contour>
			<point x="70" y="120" type="curve" smooth="yes"/>
			<point x="70" y="101"/>
			<point x="85" y="87"/>
			<point x="103" y="87" type="curve" smooth="yes"/>
			<point x="122" y="87"/>
			<point x="135" y="101"/>
			<point x="135" y="120" type="curve" smooth="yes"/>
			<point x="135" y="137"/>
			<point x="122" y="152"/>
			<point x="103" y="152" type="curve" smooth="yes"/>
			<point x="85" y="152"/>
			<point x="70" y="136"/>
		</contour>
		<contour>
			<point x="70" y="207" type="curve" smooth="yes"/>
			<point x="70" y="224"/>
			<point x="85" y="239"/>
			<point x="103" y="239" type="curve" smooth="yes"/>
			<point x="122" y="239"/>
			<point x="135" y="224"/>
			<point x="135" y="207" type="curve" smooth="yes"/>
			<point x="135" y="189"/>
			<point x="122" y="174"/>
			<point x="103" y="174" type="curve" smooth="yes"/>
			<point x="85" y="174"/>
			<point x="70" y="188"/>
		</contour>
		<contour>
			<point x="70" y="294" type="curve" smooth="yes"/>
			<point x="70" y="311"/>
			<point x="84" y="326"/>
			<point x="103" y="326" type="curve" smooth="yes"/>
			<point x="121" y="326"/>
			<point x="135" y="311"/>
			<point x="135" y="294" type="curve" smooth="yes"/>
			<point x="135" y="276"/>
			<point x="121" y="261"/>
			<point x="103" y="261" type="curve" smooth="yes"/>
			<point x="85" y="261"/>
			<point x="70" y="275"/>
		</contour>
		<contour>
			<point x="70" y="468" type="curve" smooth="yes"/>
			<point x="70" y="485"/>
			<point x="85" y="500"/>
			<point x="103" y="500" type="curve" smooth="yes"/>
			<point x="121" y="500"/>
			<point x="135" y="485"/>
			<point x="135" y="468" type="curve" smooth="yes"/>
			<point x="135" y="450"/>
			<point x="121" y="435"/>
			<point x="103" y="435" type="curve" smooth="yes"/>
			<point x="86" y="435"/>
			<point x="70" y="450"/>
		</contour>
		<contour>
			<point x="70" y="555" type="curve" smooth="yes"/>
			<point x="70" y="572"/>
			<point x="85" y="587"/>
			<point x="103" y="587" type="curve" smooth="yes"/>
			<point x="122" y="587"/>
			<point x="135" y="572"/>
			<point x="135" y="555" type="curve" smooth="yes"/>
			<point x="135" y="537"/>
			<point x="122" y="522"/>
			<point x="103" y="522" type="curve" smooth="yes"/>
			<point x="85" y="522"/>
			<point x="70" y="536"/>
		</contour>
		<contour>
			<point x="70" y="642" type="curve" smooth="yes"/>
			<point x="70" y="659"/>
			<point x="85" y="674"/>
			<point x="103" y="674" type="curve" smooth="yes"/>
			<point x="121" y="674"/>
			<point x="135" y="659"/>
			<point x="135" y="642" type="curve" smooth="yes"/>
			<point x="135" y="624"/>
			<point x="121" y="609"/>
			<point x="103" y="609" type="curve" smooth="yes"/>
			<point x="86" y="609"/>
			<point x="70" y="624"/>
		</contour>
		<contour>
			<point x="155" y="346" type="curve" smooth="yes"/>
			<point x="155" y="330"/>
			<point x="169" y="316"/>
			<point x="185" y="316" type="curve" smooth="yes"/>
			<point x="201" y="316"/>
			<point x="215" y="330"/>
			<point x="215" y="346" type="curve" smooth="yes"/>
			<point x="215" y="363"/>
			<point x="202" y="376"/>
			<point x="185" y="376" type="curve" smooth="yes"/>
			<point x="169" y="376"/>
			<point x="155" y="362"/>
		</contour>
		<contour>
			<point x="242" y="346" type="curve" smooth="yes"/>
			<point x="242" y="330"/>
			<point x="256" y="316"/>
			<point x="272" y="316" type="curve" smooth="yes"/>
			<point x="288" y="316"/>
			<point x="302" y="330"/>
			<point x="302" y="346" type="curve" smooth="yes"/>
			<point x="302" y="362"/>
			<point x="288" y="376"/>
			<point x="272" y="376" type="curve" smooth="yes"/>
			<point x="256" y="376"/>
			<point x="242" y="362"/>
		</contour>
		<contour>
			<point x="328" y="346" type="curve" smooth="yes"/>
			<point x="328" y="330"/>
			<point x="342" y="316"/>
			<point x="358" y="316" type="curve" smooth="yes"/>
			<point x="374" y="316"/>
			<point x="388" y="330"/>
			<point x="388" y="346" type="curve" smooth="yes"/>
			<point x="388" y="362"/>
			<point x="374" y="376"/>
			<point x="358" y="376" type="curve" smooth="yes"/>
			<point x="342" y="376"/>
			<point x="328" y="362"/>
		</contour>
		<contour>
			<point x="415" y="346" type="curve" smooth="yes"/>
			<point x="415" y="330"/>
			<point x="429" y="316"/>
			<point x="445" y="316" type="curve" smooth="yes"/>
			<point x="461" y="316"/>
			<point x="475" y="330"/>
			<point x="475" y="346" type="curve" smooth="yes"/>
			<point x="475" y="362"/>
			<point x="461" y="376"/>
			<point x="445" y="376" type="curve" smooth="yes"/>
			<point x="429" y="376"/>
			<point x="415" y="362"/>
		</contour>
		<contour>
			<point x="495" y="33" type="curve" smooth="yes"/>
			<point x="495" y="15"/>
			<point x="510" y="1"/>
			<point x="528" y="0" type="curve" smooth="yes"/>
			<point x="547" y="0"/>
			<point x="560" y="15"/>
			<point x="560" y="33" type="curve" smooth="yes"/>
			<point x="560" y="51"/>
			<point x="547" y="65"/>
			<point x="528" y="65" type="curve" smooth="yes"/>
			<point x="510" y="65"/>
			<point x="495" y="51"/>
		</contour>
		<contour>
			<point x="495" y="120" type="curve" smooth="yes"/>
			<point x="495" y="101"/>
			<point x="510" y="87"/>
			<point x="528" y="87" type="curve" smooth="yes"/>
			<point x="547" y="87"/>
			<point x="560" y="101"/>
			<point x="560" y="120" type="curve" smooth="yes"/>
			<point x="560" y="137"/>
			<point x="547" y="152"/>
			<point x="528" y="152" type="curve" smooth="yes"/>
			<point x="510" y="152"/>
			<point x="495" y="136"/>
		</contour>
		<contour>
			<point x="495" y="207" type="curve" smooth="yes"/>
			<point x="495" y="224"/>
			<point x="510" y="239"/>
			<point x="528" y="239" type="curve" smooth="yes"/>
			<point x="547" y="239"/>
			<point x="560" y="224"/>
			<point x="560" y="207" type="curve" smooth="yes"/>
			<point x="560" y="189"/>
			<point x="547" y="174"/>
			<point x="528" y="174" type="curve" smooth="yes"/>
			<point x="510" y="174"/>
			<point x="495" y="188"/>
		</contour>
		<contour>
			<point x="495" y="294" type="curve" smooth="yes"/>
			<point x="495" y="311"/>
			<point x="509" y="326"/>
			<point x="528" y="326" type="curve" smooth="yes"/>
			<point x="546" y="326"/>
			<point x="560" y="311"/>
			<point x="560" y="294" type="curve" smooth="yes"/>
			<point x="560" y="276"/>
			<point x="546" y="261"/>
			<point x="528" y="261" type="curve" smooth="yes"/>
			<point x="510" y="261"/>
			<point x="495" y="275"/>
		</contour>
		<contour>
			<point x="495" y="381" type="curve" smooth="yes"/>
			<point x="495" y="398"/>
			<point x="510" y="413"/>
			<point x="528" y="413" type="curve" smooth="yes"/>
			<point x="547" y="413"/>
			<point x="560" y="398"/>
			<point x="560" y="381" type="curve" smooth="yes"/>
			<point x="560" y="363"/>
			<point x="547" y="348"/>
			<point x="528" y="348" type="curve" smooth="yes"/>
			<point x="510" y="348"/>
			<point x="495" y="362"/>
		</contour>
		<contour>
			<point x="495" y="468" type="curve" smooth="yes"/>
			<point x="495" y="485"/>
			<point x="510" y="500"/>
			<point x="528" y="500" type="curve" smooth="yes"/>
			<point x="546" y="500"/>
			<point x="560" y="485"/>
			<point x="560" y="468" type="curve" smooth="yes"/>
			<point x="560" y="450"/>
			<point x="546" y="435"/>
			<point x="528" y="435" type="curve" smooth="yes"/>
			<point x="511" y="435"/>
			<point x="495" y="450"/>
		</contour>
		<contour>
			<point x="495" y="555" type="curve" smooth="yes"/>
			<point x="495" y="572"/>
			<point x="510" y="587"/>
			<point x="528" y="587" type="curve" smooth="yes"/>
			<point x="547" y="587"/>
			<point x="560" y="572"/>
			<point x="560" y="555" type="curve" smooth="yes"/>
			<point x="560" y="537"/>
			<point x="547" y="522"/>
			<point x="528" y="522" type="curve" smooth="yes"/>
			<point x="510" y="522"/>
			<point x="495" y="536"/>
		</contour>
		<contour>
			<point x="495" y="642" type="curve" smooth="yes"/>
			<point x="495" y="659"/>
			<point x="510" y="674"/>
			<point x="528" y="674" type="curve" smooth="yes"/>
			<point x="546" y="674"/>
			<point x="560" y="659"/>
			<point x="560" y="642" type="curve" smooth="yes"/>
			<point x="560" y="624"/>
			<point x="546" y="609"/>
			<point x="528" y="609" type="curve" smooth="yes"/>
			<point x="511" y="609"/>
			<point x="495" y="624"/>
		</contour>
	</outline>
</glyph>
<glyph name="O" format="2">
	<advance width="690"/>
	<unicode hex="004F"/>
	<note>
		O
	</note>
	<outline>
		<contour>
			<point x="357" y="658" type="curve" smooth="yes"/>
			<point x="357" y="675"/>
			<point x="370" y="688"/>
			<point x="387" y="688" type="curve" smooth="yes"/>
			<point x="404" y="688"/>
			<point x="417" y="675"/>
			<point x="417" y="658" type="curve" smooth="yes"/>
			<point x="417" y="641"/>
			<point x="404" y="628"/>
			<point x="387" y="628" type="curve" smooth="yes"/>
			<point x="370" y="628"/>
			<point x="357" y="641"/>
		</contour>
		<contour>
			<point x="437" y="625" type="curve" smooth="yes"/>
			<point x="437" y="643"/>
			<point x="452" y="658"/>
			<point x="470" y="658" type="curve" smooth="yes"/>
			<point x="489" y="658"/>
			<point x="503" y="643"/>
			<point x="503" y="625" type="curve" smooth="yes"/>
			<point x="503" y="606"/>
			<point x="489" y="592"/>
			<point x="470" y="592" type="curve" smooth="yes"/>
			<point x="452" y="592"/>
			<point x="437" y="606"/>
		</contour>
		<contour>
			<point x="502" y="560" type="curve" smooth="yes"/>
			<point x="502" y="542"/>
			<point x="517" y="527"/>
			<point x="535" y="527" type="curve" smooth="yes"/>
			<point x="553" y="527"/>
			<point x="568" y="542"/>
			<point x="568" y="560" type="curve" smooth="yes"/>
			<point x="568" y="577"/>
			<point x="553" y="593"/>
			<point x="535" y="593" type="curve" smooth="yes"/>
			<point x="517" y="593"/>
			<point x="502" y="577"/>
		</contour>
		<contour>
			<point x="538" y="477" type="curve" smooth="yes"/>
			<point x="538" y="458"/>
			<point x="554" y="442"/>
			<point x="574" y="442" type="curve" smooth="yes"/>
			<point x="594" y="442"/>
			<point x="608" y="458"/>
			<point x="608" y="477" type="curve" smooth="yes"/>
			<point x="608" y="496"/>
			<point x="594" y="511"/>
			<point x="574" y="511" type="curve" smooth="yes"/>
			<point x="554" y="511"/>
			<point x="538" y="496"/>
		</contour>
		<contour>
			<point x="590" y="349" type="curve" smooth="yes"/>
			<point x="609" y="349"/>
			<point x="625" y="365"/>
			<point x="625" y="384" type="curve" smooth="yes"/>
			<point x="625" y="403"/>
			<point x="609" y="419"/>
			<point x="590" y="419" type="curve" smooth="yes"/>
			<point x="571" y="419"/>
			<point x="555" y="403"/>
			<point x="555" y="384" type="curve" smooth="yes"/>
			<point x="555" y="365"/>
			<point x="571" y="349"/>
		</contour>
		<contour>
			<point x="333" y="658" type="curve" smooth="yes"/>
			<point x="333" y="641"/>
			<point x="320" y="628"/>
			<point x="303" y="628" type="curve" smooth="yes"/>
			<point x="286" y="628"/>
			<point x="273" y="641"/>
			<point x="273" y="658" type="curve" smooth="yes"/>
			<point x="273" y="675"/>
			<point x="286" y="688"/>
			<point x="303" y="688" type="curve" smooth="yes"/>
			<point x="320" y="688"/>
			<point x="333" y="675"/>
		</contour>
		<contour>
			<point x="253" y="625" type="curve" smooth="yes"/>
			<point x="253" y="606"/>
			<point x="238" y="592"/>
			<point x="220" y="592" type="curve" smooth="yes"/>
			<point x="201" y="592"/>
			<point x="187" y="606"/>
			<point x="187" y="625" type="curve" smooth="yes"/>
			<point x="187" y="643"/>
			<point x="201" y="658"/>
			<point x="220" y="658" type="curve" smooth="yes"/>
			<point x="238" y="658"/>
			<point x="253" y="643"/>
		</contour>
		<contour>
			<point x="188" y="560" type="curve" smooth="yes"/>
			<point x="188" y="577"/>
			<point x="173" y="593"/>
			<point x="155" y="593" type="curve" smooth="yes"/>
			<point x="137" y="593"/>
			<point x="122" y="577"/>
			<point x="122" y="560" type="curve" smooth="yes"/>
			<point x="122" y="542"/>
			<point x="137" y="527"/>
			<point x="155" y="527" type="curve" smooth="yes"/>
			<point x="173" y="527"/>
			<point x="188" y="542"/>
		</contour>
		<contour>
			<point x="152" y="477" type="curve" smooth="yes"/>
			<point x="152" y="496"/>
			<point x="136" y="511"/>
			<point x="116" y="511" type="curve" smooth="yes"/>
			<point x="96" y="511"/>
			<point x="82" y="496"/>
			<point x="82" y="477" type="curve" smooth="yes"/>
			<point x="82" y="458"/>
			<point x="96" y="442"/>
			<point x="116" y="442" type="curve" smooth="yes"/>
			<point x="136" y="442"/>
			<point x="152" y="458"/>
		</contour>
		<contour>
			<point x="100" y="349" type="curve" smooth="yes"/>
			<point x="119" y="349"/>
			<point x="135" y="365"/>
			<point x="135" y="384" type="curve" smooth="yes"/>
			<point x="135" y="403"/>
			<point x="119" y="419"/>
			<point x="100" y="419" type="curve" smooth="yes"/>
			<point x="81" y="419"/>
			<point x="65" y="403"/>
			<point x="65" y="384" type="curve" smooth="yes"/>
			<point x="65" y="365"/>
			<point x="81" y="349"/>
		</contour>
		<contour>
			<point x="357" y="16" type="curve" smooth="yes"/>
			<point x="357" y="33"/>
			<point x="370" y="46"/>
			<point x="387" y="46" type="curve" smooth="yes"/>
			<point x="404" y="46"/>
			<point x="417" y="33"/>
			<point x="417" y="16" type="curve" smooth="yes"/>
			<point x="417" y="-1"/>
			<point x="404" y="-14"/>
			<point x="387" y="-14" type="curve" smooth="yes"/>
			<point x="370" y="-14"/>
			<point x="357" y="-1"/>
		</contour>
		<contour>
			<point x="437" y="49" type="curve" smooth="yes"/>
			<point x="437" y="68"/>
			<point x="452" y="82"/>
			<point x="470" y="82" type="curve" smooth="yes"/>
			<point x="489" y="82"/>
			<point x="503" y="68"/>
			<point x="503" y="49" type="curve" smooth="yes"/>
			<point x="503" y="31"/>
			<point x="489" y="16"/>
			<point x="470" y="16" type="curve" smooth="yes"/>
			<point x="452" y="16"/>
			<point x="437" y="31"/>
		</contour>
		<contour>
			<point x="502" y="114" type="curve" smooth="yes"/>
			<point x="502" y="97"/>
			<point x="517" y="81"/>
			<point x="535" y="81" type="curve" smooth="yes"/>
			<point x="553" y="81"/>
			<point x="568" y="97"/>
			<point x="568" y="114" type="curve" smooth="yes"/>
			<point x="568" y="132"/>
			<point x="553" y="147"/>
			<point x="535" y="147" type="curve" smooth="yes"/>
			<point x="517" y="147"/>
			<point x="502" y="132"/>
		</contour>
		<contour>
			<point x="538" y="197" type="curve" smooth="yes"/>
			<point x="538" y="178"/>
			<point x="554" y="163"/>
			<point x="574" y="163" type="curve" smooth="yes"/>
			<point x="594" y="163"/>
			<point x="608" y="178"/>
			<point x="608" y="197" type="curve" smooth="yes"/>
			<point x="608" y="216"/>
			<point x="594" y="232"/>
			<point x="574" y="232" type="curve" smooth="yes"/>
			<point x="554" y="232"/>
			<point x="538" y="216"/>
		</contour>
		<contour>
			<point x="590" y="325" type="curve" smooth="yes"/>
			<point x="571" y="325"/>
			<point x="555" y="309"/>
			<point x="555" y="290" type="curve" smooth="yes"/>
			<point x="555" y="271"/>
			<point x="571" y="255"/>
			<point x="590" y="255" type="curve" smooth="yes"/>
			<point x="609" y="255"/>
			<point x="625" y="271"/>
			<point x="625" y="290" type="curve" smooth="yes"/>
			<point x="625" y="309"/>
			<point x="609" y="325"/>
		</contour>
		<contour>
			<point x="333" y="16" type="curve" smooth="yes"/>
			<point x="333" y="-1"/>
			<point x="320" y="-14"/>
			<point x="303" y="-14" type="curve" smooth="yes"/>
			<point x="286" y="-14"/>
			<point x="273" y="-1"/>
			<point x="273" y="16" type="curve" smooth="yes"/>
			<point x="273" y="33"/>
			<point x="286" y="46"/>
			<point x="303" y="46" type="curve" smooth="yes"/>
			<point x="320" y="46"/>
			<point x="333" y="33"/>
		</contour>
		<contour>
			<point x="253" y="49" type="curve" smooth="yes"/>
			<point x="253" y="31"/>
			<point x="238" y="16"/>
			<point x="220" y="16" type="curve" smooth="yes"/>
			<point x="201" y="16"/>
			<point x="187" y="31"/>
			<point x="187" y="49" type="curve" smooth="yes"/>
			<point x="187" y="68"/>
			<point x="201" y="82"/>
			<point x="220" y="82" type="curve" smooth="yes"/>
			<point x="238" y="82"/>
			<point x="253" y="68"/>
		</contour>
		<contour>
			<point x="188" y="114" type="curve" smooth="yes"/>
			<point x="188" y="132"/>
			<point x="173" y="147"/>
			<point x="155" y="147" type="curve" smooth="yes"/>
			<point x="137" y="147"/>
			<point x="122" y="132"/>
			<point x="122" y="114" type="curve" smooth="yes"/>
			<point x="122" y="97"/>
			<point x="137" y="81"/>
			<point x="155" y="81" type="curve" smooth="yes"/>
			<point x="173" y="81"/>
			<point x="188" y="97"/>
		</contour>
		<contour>
			<point x="152" y="197" type="curve" smooth="yes"/>
			<point x="152" y="216"/>
			<point x="136" y="232"/>
			<point x="116" y="232" type="curve" smooth="yes"/>
			<point x="96" y="232"/>
			<point x="82" y="216"/>
			<point x="82" y="197" type="curve" smooth="yes"/>
			<point x="82" y="178"/>
			<point x="96" y="163"/>
			<point x="116" y="163" type="curve" smooth="yes"/>
			<point x="136" y="163"/>
			<point x="152" y="178"/>
		</contour>
		<contour>
			<point x="100" y="325" type="curve" smooth="yes"/>
			<point x="81" y="325"/>
			<point x="65" y="309"/>
			<point x="65" y="290" type="curve" smooth="yes"/>
			<point x="65" y="271"/>
			<point x="81" y="255"/>
			<point x="100" y="255" type="curve" smooth="yes"/>
			<point x="119" y="255"/>
			<point x="135" y="271"/>
			<point x="135" y="290" type="curve" smooth="yes"/>
			<point x="135" y="309"/>
			<point x="119" y="325"/>
		</contour>
	</outline>
</glyph>
<glyph name="a" format="2">
	<advance width="474"/>
	<unicode hex="0061"/>
	<note>
		a.002
	</note>
	<outline>
		<contour>
			<point x="337" y="120" type="curve" smooth="yes"/>
			<point x="337" y="101"/>
			<point x="350" y="87"/>
			<point x="369" y="87" type="curve" smooth="yes"/>
			<point x="387" y="87"/>
			<point x="402" y="101"/>
			<point x="402" y="120" type="curve" smooth="yes"/>
			<point x="402" y="136"/>
			<point x="387" y="152"/>
			<point x="369" y="152" type="curve" smooth="yes"/>
			<point x="350" y="152"/>
			<point x="337" y="137"/>
		</contour>
		<contour>
			<point x="48" y="183" type="curve" smooth="yes"/>
			<point x="48" y="164"/>
			<point x="64" y="148"/>
			<point x="83" y="148" type="curve" smooth="yes"/>
			<point x="102" y="148"/>
			<point x="118" y="164"/>
			<point x="118" y="183" type="curve" smooth="yes"/>
			<point x="118" y="202"/>
			<point x="103" y="218"/>
			<point x="83" y="218" type="curve" smooth="yes"/>
			<point x="64" y="218"/>
			<point x="48" y="202"/>
		</contour>
		<contour>
			<point x="50" y="89" type="curve" smooth="yes"/>
			<point x="50" y="70"/>
			<point x="66" y="54"/>
			<point x="85" y="54" type="curve" smooth="yes"/>
			<point x="106" y="54"/>
			<point x="120" y="69"/>
			<point x="120" y="89" type="curve" smooth="yes"/>
			<point x="120" y="107"/>
			<point x="104" y="124"/>
			<point x="85" y="124" type="curve" smooth="yes"/>
			<point x="66" y="124"/>
			<point x="50" y="108"/>
		</contour>
		<contour>
			<point x="81" y="452" type="curve" smooth="yes"/>
			<point x="81" y="467"/>
			<point x="94" y="480"/>
			<point x="109" y="480" type="curve" smooth="yes"/>
			<point x="125" y="480"/>
			<point x="137" y="467"/>
			<point x="137" y="452" type="curve" smooth="yes"/>
			<point x="139" y="436"/>
			<point x="125" y="423"/>
			<point x="109" y="423" type="curve" smooth="yes"/>
			<point x="94" y="423"/>
			<point x="81" y="436"/>
		</contour>
		<contour>
			<point x="109" y="252" type="curve" smooth="yes"/>
			<point x="109" y="269"/>
			<point x="122" y="284"/>
			<point x="140" y="284" type="curve" smooth="yes"/>
			<point x="157" y="284"/>
			<point x="173" y="269"/>
			<point x="173" y="252" type="curve" smooth="yes"/>
			<point x="173" y="234"/>
			<point x="157" y="220"/>
			<point x="140" y="220" type="curve" smooth="yes"/>
			<point x="122" y="220"/>
			<point x="109" y="234"/>
		</contour>
		<contour>
			<point x="111" y="18" type="curve" smooth="yes"/>
			<point x="111" y="-1"/>
			<point x="126" y="-16"/>
			<point x="145" y="-16" type="curve" smooth="yes"/>
			<point x="164" y="-16"/>
			<point x="179" y="-1"/>
			<point x="179" y="18" type="curve" smooth="yes"/>
			<point x="179" y="38"/>
			<point x="164" y="52"/>
			<point x="145" y="52" type="curve" smooth="yes"/>
			<point x="126" y="52"/>
			<point x="111" y="37"/>
		</contour>
		<contour>
			<point x="148" y="479" type="curve" smooth="yes"/>
			<point x="148" y="494"/>
			<point x="161" y="507"/>
			<point x="176" y="507" type="curve" smooth="yes"/>
			<point x="192" y="507"/>
			<point x="204" y="494"/>
			<point x="204" y="479" type="curve" smooth="yes"/>
			<point x="206" y="463"/>
			<point x="192" y="450"/>
			<point x="176" y="450" type="curve" smooth="yes"/>
			<point x="161" y="450"/>
			<point x="148" y="463"/>
		</contour>
		<contour>
			<point x="190" y="272" type="curve" smooth="yes"/>
			<point x="190" y="288"/>
			<point x="204" y="302"/>
			<point x="221" y="302" type="curve" smooth="yes"/>
			<point x="237" y="302"/>
			<point x="251" y="288"/>
			<point x="251" y="272" type="curve" smooth="yes"/>
			<point x="251" y="255"/>
			<point x="237" y="242"/>
			<point x="221" y="242" type="curve" smooth="yes"/>
			<point x="204" y="242"/>
			<point x="190" y="255"/>
		</contour>
		<contour>
			<point x="203" y="20" type="curve" smooth="yes"/>
			<point x="203" y="38"/>
			<point x="216" y="52"/>
			<point x="235" y="52" type="curve" smooth="yes"/>
			<point x="253" y="52"/>
			<point x="267" y="38"/>
			<point x="267" y="20" type="curve" smooth="yes"/>
			<point x="267" y="0"/>
			<point x="253" y="-13"/>
			<point x="235" y="-13" type="curve" smooth="yes"/>
			<point x="216" y="-13"/>
			<point x="203" y="1"/>
		</contour>
		<contour>
			<point x="222" y="487" type="curve" smooth="yes"/>
			<point x="222" y="502"/>
			<point x="234" y="515"/>
			<point x="250" y="515" type="curve" smooth="yes"/>
			<point x="265" y="515"/>
			<point x="278" y="502"/>
			<point x="278" y="487" type="curve" smooth="yes"/>
			<point x="278" y="471"/>
			<point x="265" y="458"/>
			<point x="250" y="458" type="curve" smooth="yes"/>
			<point x="234" y="458"/>
			<point x="220" y="471"/>
		</contour>
		<contour>
			<point x="273" y="262" type="curve" smooth="yes"/>
			<point x="273" y="277"/>
			<point x="285" y="290"/>
			<point x="301" y="290" type="curve" smooth="yes"/>
			<point x="316" y="290"/>
			<point x="329" y="277"/>
			<point x="329" y="262" type="curve" smooth="yes"/>
			<point x="329" y="246"/>
			<point x="316" y="233"/>
			<point x="301" y="233" type="curve" smooth="yes"/>
			<point x="285" y="233"/>
			<point x="273" y="246"/>
		</contour>
		<contour>
			<point x="277" y="63" type="curve" smooth="yes"/>
			<point x="277" y="80"/>
			<point x="289" y="93"/>
			<point x="307" y="93" type="curve" smooth="yes"/>
			<point x="324" y="93"/>
			<point x="337" y="80"/>
			<point x="337" y="63" type="curve" smooth="yes"/>
			<point x="337" y="45"/>
			<point x="324" y="32"/>
			<point x="307" y="32" type="curve" smooth="yes"/>
			<point x="289" y="32"/>
			<point x="277" y="45"/>
		</contour>
		<contour>
			<point x="290" y="457" type="curve" smooth="yes"/>
			<point x="290" y="473"/>
			<point x="305" y="488"/>
			<point x="321" y="488" type="curve" smooth="yes"/>
			<point x="339" y="488"/>
			<point x="352" y="473"/>
			<point x="352" y="457" type="curve" smooth="yes"/>
			<point x="352" y="439"/>
			<point x="339" y="426"/>
			<point x="321" y="426" type="curve" smooth="yes"/>
			<point x="304" y="426"/>
			<point x="290" y="440"/>
		</contour>
		<contour>
			<point x="333" y="386" type="curve" smooth="yes"/>
			<point x="333" y="367"/>
			<point x="348" y="353"/>
			<point x="366" y="353" type="curve" smooth="yes"/>
			<point x="384" y="353"/>
			<point x="399" y="368"/>
			<point x="399" y="386" type="curve" smooth="yes"/>
			<point x="399" y="404"/>
			<point x="384" y="419"/>
			<point x="366" y="419" type="curve" smooth="yes"/>
			<point x="348" y="419"/>
			<point x="333" y="404"/>
		</contour>
		<contour>
			<point x="337" y="207" type="curve" smooth="yes"/>
			<point x="337" y="224"/>
			<point x="350" y="239"/>
			<point x="369" y="239" type="curve" smooth="yes"/>
			<point x="387" y="239"/>
			<point x="402" y="224"/>
			<point x="402" y="207" type="curve" smooth="yes"/>
			<point x="402" y="188"/>
			<point x="387" y="174"/>
			<point x="369" y="174" type="curve" smooth="yes"/>
			<point x="350" y="174"/>
			<point x="337" y="189"/>
		</contour>
		<contour>
			<point x="337" y="294" type="curve" smooth="yes"/>
			<point x="337" y="311"/>
			<point x="350" y="326"/>
			<point x="369" y="326" type="curve" smooth="yes"/>
			<point x="387" y="326"/>
			<point x="402" y="311"/>
			<point x="402" y="294" type="curve" smooth="yes"/>
			<point x="402" y="275"/>
			<point x="387" y="261"/>
			<point x="369" y="261" type="curve" smooth="yes"/>
			<point x="350" y="261"/>
			<point x="337" y="276"/>
		</contour>
		<contour>
			<point x="357" y="33" type="curve" smooth="yes"/>
			<point x="357" y="15"/>
			<point x="370" y="0"/>
			<point x="389" y="0" type="curve" smooth="yes"/>
			<point x="407" y="1"/>
			<point x="422" y="15"/>
			<point x="422" y="33" type="curve" smooth="yes"/>
			<point x="422" y="52"/>
			<point x="407" y="65"/>
			<point x="389" y="65" type="curve" smooth="yes"/>
			<point x="370" y="65"/>
			<point x="357" y="51"/>
		</contour>
	</outline>
</glyph>
<glyph name="b" format="2">
	<advance width="543"/>
	<unicode hex="0062"/>
	<note>
		b
	</note>
	<outline>
		<contour>
			<point x="272" y="13" type="curve" smooth="yes"/>
			<point x="272" y="-2"/>
			<point x="259" y="-15"/>
			<point x="243" y="-15" type="curve" smooth="yes"/>
			<point x="228" y="-15"/>
			<point x="215" y="-2"/>
			<point x="215" y="13" type="curve" smooth="yes"/>
			<point x="215" y="29"/>
			<point x="228" y="42"/>
			<point x="243" y="42" type="curve" smooth="yes"/>
			<point x="259" y="42"/>
			<point x="272" y="29"/>
		</contour>
		<contour>
			<point x="52" y="33" type="curve" smooth="yes"/>
			<point x="52" y="15"/>
			<point x="65" y="0"/>
			<point x="84" y="0" type="curve" smooth="yes"/>
			<point x="102" y="1"/>
			<point x="117" y="15"/>
			<point x="117" y="33" type="curve" smooth="yes"/>
			<point x="117" y="51"/>
			<point x="102" y="65"/>
			<point x="84" y="65" type="curve" smooth="yes"/>
			<point x="65" y="65"/>
			<point x="52" y="51"/>
		</contour>
		<contour>
			<point x="72" y="120" type="curve" smooth="yes"/>
			<point x="72" y="101"/>
			<point x="85" y="87"/>
			<point x="104" y="87" type="curve" smooth="yes"/>
			<point x="122" y="87"/>
			<point x="137" y="101"/>
			<point x="137" y="120" type="curve" smooth="yes"/>
			<point x="137" y="136"/>
			<point x="122" y="152"/>
			<point x="104" y="152" type="curve" smooth="yes"/>
			<point x="85" y="152"/>
			<point x="72" y="137"/>
		</contour>
		<contour>
			<point x="72" y="207" type="curve" smooth="yes"/>
			<point x="72" y="224"/>
			<point x="85" y="239"/>
			<point x="104" y="239" type="curve" smooth="yes"/>
			<point x="122" y="239"/>
			<point x="137" y="224"/>
			<point x="137" y="207" type="curve" smooth="yes"/>
			<point x="137" y="188"/>
			<point x="122" y="174"/>
			<point x="104" y="174" type="curve" smooth="yes"/>
			<point x="85" y="174"/>
			<point x="72" y="189"/>
		</contour>
		<contour>
			<point x="72" y="294" type="curve" smooth="yes"/>
			<point x="72" y="311"/>
			<point x="86" y="326"/>
			<point x="104" y="326" type="curve" smooth="yes"/>
			<point x="123" y="326"/>
			<point x="137" y="311"/>
			<point x="137" y="294" type="curve" smooth="yes"/>
			<point x="137" y="275"/>
			<point x="122" y="261"/>
			<point x="104" y="261" type="curve" smooth="yes"/>
			<point x="86" y="261"/>
			<point x="72" y="276"/>
		</contour>
		<contour>
			<point x="72" y="381" type="curve" smooth="yes"/>
			<point x="72" y="398"/>
			<point x="85" y="413"/>
			<point x="104" y="413" type="curve" smooth="yes"/>
			<point x="122" y="413"/>
			<point x="137" y="398"/>
			<point x="137" y="381" type="curve" smooth="yes"/>
			<point x="137" y="362"/>
			<point x="122" y="348"/>
			<point x="104" y="348" type="curve" smooth="yes"/>
			<point x="85" y="348"/>
			<point x="72" y="363"/>
		</contour>
		<contour>
			<point x="72" y="468" type="curve" smooth="yes"/>
			<point x="72" y="485"/>
			<point x="86" y="500"/>
			<point x="104" y="500" type="curve" smooth="yes"/>
			<point x="122" y="500"/>
			<point x="137" y="485"/>
			<point x="137" y="468" type="curve" smooth="yes"/>
			<point x="137" y="450"/>
			<point x="121" y="435"/>
			<point x="104" y="435" type="curve" smooth="yes"/>
			<point x="86" y="435"/>
			<point x="72" y="450"/>
		</contour>
		<contour>
			<point x="72" y="555" type="curve" smooth="yes"/>
			<point x="72" y="572"/>
			<point x="85" y="587"/>
			<point x="104" y="587" type="curve" smooth="yes"/>
			<point x="122" y="587"/>
			<point x="137" y="572"/>
			<point x="137" y="555" type="curve" smooth="yes"/>
			<point x="137" y="536"/>
			<point x="122" y="522"/>
			<point x="104" y="522" type="curve" smooth="yes"/>
			<point x="85" y="522"/>
			<point x="72" y="537"/>
		</contour>
		<contour>
			<point x="72" y="642" type="curve" smooth="yes"/>
			<point x="72" y="659"/>
			<point x="86" y="674"/>
			<point x="104" y="674" type="curve" smooth="yes"/>
			<point x="122" y="674"/>
			<point x="137" y="659"/>
			<point x="137" y="642" type="curve" smooth="yes"/>
			<point x="137" y="624"/>
			<point x="121" y="609"/>
			<point x="104" y="609" type="curve" smooth="yes"/>
			<point x="86" y="609"/>
			<point x="72" y="624"/>
		</contour>
		<contour>
			<point x="145" y="54" type="curve" smooth="yes"/>
			<point x="145" y="69"/>
			<point x="157" y="81"/>
			<point x="172" y="81" type="curve" smooth="yes"/>
			<point x="188" y="81"/>
			<point x="199" y="69"/>
			<point x="199" y="54" type="curve" smooth="yes"/>
			<point x="201" y="38"/>
			<point x="188" y="26"/>
			<point x="172" y="26" type="curve" smooth="yes"/>
			<point x="157" y="26"/>
			<point x="145" y="38"/>
		</contour>
		<contour>
			<point x="153" y="435" type="curve" smooth="yes"/>
			<point x="153" y="449"/>
			<point x="165" y="461"/>
			<point x="179" y="461" type="curve" smooth="yes"/>
			<point x="194" y="461"/>
			<point x="205" y="449"/>
			<point x="205" y="435" type="curve"/>
			<point x="207" y="420"/>
			<point x="194" y="408"/>
			<point x="179" y="408" type="curve" smooth="yes"/>
			<point x="165" y="408"/>
			<point x="153" y="420"/>
		</contour>
		<contour>
			<point x="210" y="479" type="curve" smooth="yes"/>
			<point x="210" y="493"/>
			<point x="222" y="505"/>
			<point x="236" y="505" type="curve" smooth="yes"/>
			<point x="251" y="505"/>
			<point x="262" y="493"/>
			<point x="262" y="479" type="curve"/>
			<point x="264" y="464"/>
			<point x="251" y="452"/>
			<point x="236" y="452" type="curve" smooth="yes"/>
			<point x="222" y="452"/>
			<point x="210" y="464"/>
		</contour>
		<contour>
			<point x="282" y="487" type="curve" smooth="yes"/>
			<point x="282" y="502"/>
			<point x="294" y="515"/>
			<point x="310" y="515" type="curve" smooth="yes"/>
			<point x="325" y="515"/>
			<point x="338" y="502"/>
			<point x="338" y="487" type="curve" smooth="yes"/>
			<point x="338" y="471"/>
			<point x="325" y="458"/>
			<point x="310" y="458" type="curve" smooth="yes"/>
			<point x="294" y="458"/>
			<point x="280" y="471"/>
		</contour>
		<contour>
			<point x="293" y="13" type="curve" smooth="yes"/>
			<point x="293" y="29"/>
			<point x="305" y="42"/>
			<point x="321" y="42" type="curve" smooth="yes"/>
			<point x="336" y="42"/>
			<point x="349" y="29"/>
			<point x="349" y="13" type="curve" smooth="yes"/>
			<point x="349" y="-2"/>
			<point x="336" y="-15"/>
			<point x="321" y="-15" type="curve" smooth="yes"/>
			<point x="305" y="-15"/>
			<point x="293" y="-2"/>
		</contour>
		<contour>
			<point x="350" y="457" type="curve" smooth="yes"/>
			<point x="350" y="473"/>
			<point x="365" y="488"/>
			<point x="381" y="488" type="curve" smooth="yes"/>
			<point x="399" y="488"/>
			<point x="412" y="473"/>
			<point x="412" y="457" type="curve" smooth="yes"/>
			<point x="412" y="439"/>
			<point x="399" y="426"/>
			<point x="381" y="426" type="curve" smooth="yes"/>
			<point x="364" y="426"/>
			<point x="350" y="440"/>
		</contour>
		<contour>
			<point x="361" y="47" type="curve" smooth="yes"/>
			<point x="361" y="64"/>
			<point x="375" y="78"/>
			<point x="392" y="78" type="curve" smooth="yes"/>
			<point x="410" y="78"/>
			<point x="423" y="65"/>
			<point x="423" y="47" type="curve" smooth="yes"/>
			<point x="423" y="31"/>
			<point x="410" y="16"/>
			<point x="392" y="16" type="curve" smooth="yes"/>
			<point x="376" y="16"/>
			<point x="361" y="31"/>
		</contour>
		<contour>
			<point x="406" y="114" type="curve" smooth="yes"/>
			<point x="406" y="96"/>
			<point x="421" y="81"/>
			<point x="439" y="81" type="curve" smooth="yes"/>
			<point x="457" y="81"/>
			<point x="472" y="96"/>
			<point x="472" y="114" type="curve" smooth="yes"/>
			<point x="472" y="132"/>
			<point x="457" y="147"/>
			<point x="439" y="147" type="curve" smooth="yes"/>
			<point x="421" y="147"/>
			<point x="406" y="133"/>
		</contour>
		<contour>
			<point x="406" y="386" type="curve" smooth="yes"/>
			<point x="406" y="367"/>
			<point x="421" y="353"/>
			<point x="439" y="353" type="curve" smooth="yes"/>
			<point x="457" y="353"/>
			<point x="472" y="368"/>
			<point x="472" y="386" type="curve" smooth="yes"/>
			<point x="472" y="404"/>
			<point x="457" y="419"/>
			<point x="439" y="419" type="curve" smooth="yes"/>
			<point x="421" y="419"/>
			<point x="406" y="404"/>
		</contour>
		<contour>
			<point x="419" y="205" type="curve" smooth="yes"/>
			<point x="419" y="186"/>
			<point x="434" y="170"/>
			<point x="454" y="170" type="curve" smooth="yes"/>
			<point x="473" y="170"/>
			<point x="489" y="186"/>
			<point x="489" y="205" type="curve" smooth="yes"/>
			<point x="489" y="223"/>
			<point x="473" y="240"/>
			<point x="454" y="240" type="curve" smooth="yes"/>
			<point x="435" y="240"/>
			<point x="419" y="224"/>
		</contour>
		<contour>
			<point x="419" y="297" type="curve" smooth="yes"/>
			<point x="419" y="278"/>
			<point x="435" y="262"/>
			<point x="454" y="262" type="curve" smooth="yes"/>
			<point x="473" y="262"/>
			<point x="489" y="276"/>
			<point x="489" y="297" type="curve" smooth="yes"/>
			<point x="489" y="316"/>
			<point x="473" y="332"/>
			<point x="454" y="332" type="curve" smooth="yes"/>
			<point x="434" y="332"/>
			<point x="419" y="316"/>
		</contour>
	</outline>
</glyph>
<glyph name="c" format="2">
	<advance width="443"/>
	<unicode hex="0063"/>
	<note>
		c
	</note>
	<outline>
		<contour>
			<point x="245" y="13" type="curve" smooth="yes"/>
			<point x="245" y="-2"/>
			<point x="233" y="-15"/>
			<point x="217" y="-15" type="curve" smooth="yes"/>
			<point x="202" y="-15"/>
			<point x="189" y="-2"/>
			<point x="189" y="13" type="curve" smooth="yes"/>
			<point x="189" y="29"/>
			<point x="202" y="42"/>
			<point x="217" y="42" type="curve" smooth="yes"/>
			<point x="233" y="42"/>
			<point x="245" y="29"/>
		</contour>
		<contour>
			<point x="55" y="208" type="curve" smooth="yes"/>
			<point x="55" y="190"/>
			<point x="71" y="174"/>
			<point x="89" y="174" type="curve" smooth="yes"/>
			<point x="109" y="174"/>
			<point x="123" y="189"/>
			<point x="123" y="208" type="curve" smooth="yes"/>
			<point x="123" y="226"/>
			<point x="107" y="240"/>
			<point x="89" y="240" type="curve" smooth="yes"/>
			<point x="71" y="240"/>
			<point x="55" y="226"/>
		</contour>
		<contour>
			<point x="70" y="120" type="curve" smooth="yes"/>
			<point x="70" y="102"/>
			<point x="85" y="87"/>
			<point x="103" y="87" type="curve" smooth="yes"/>
			<point x="121" y="87"/>
			<point x="136" y="102"/>
			<point x="136" y="120" type="curve" smooth="yes"/>
			<point x="136" y="139"/>
			<point x="121" y="153"/>
			<point x="103" y="153" type="curve" smooth="yes"/>
			<point x="85" y="153"/>
			<point x="70" y="138"/>
		</contour>
		<contour>
			<point x="117" y="49" type="curve" smooth="yes"/>
			<point x="117" y="67"/>
			<point x="130" y="80"/>
			<point x="148" y="80" type="curve" smooth="yes"/>
			<point x="165" y="80"/>
			<point x="179" y="66"/>
			<point x="179" y="49" type="curve" smooth="yes"/>
			<point x="179" y="33"/>
			<point x="165" y="18"/>
			<point x="148" y="18" type="curve" smooth="yes"/>
			<point x="130" y="18"/>
			<point x="117" y="33"/>
		</contour>
		<contour>
			<point x="267" y="13" type="curve" smooth="yes"/>
			<point x="267" y="29"/>
			<point x="279" y="42"/>
			<point x="295" y="42" type="curve" smooth="yes"/>
			<point x="310" y="42"/>
			<point x="323" y="29"/>
			<point x="323" y="13" type="curve" smooth="yes"/>
			<point x="323" y="-2"/>
			<point x="310" y="-15"/>
			<point x="295" y="-15" type="curve" smooth="yes"/>
			<point x="279" y="-15"/>
			<point x="267" y="-2"/>
		</contour>
		<contour>
			<point x="0" y="0"/>
		</contour>
		<contour>
			<point x="245" y="487" type="curve" smooth="yes"/>
			<point x="245" y="471"/>
			<point x="233" y="458"/>
			<point x="217" y="458" type="curve" smooth="yes"/>
			<point x="202" y="458"/>
			<point x="189" y="471"/>
			<point x="189" y="487" type="curve" smooth="yes"/>
			<point x="189" y="502"/>
			<point x="202" y="515"/>
			<point x="217" y="515" type="curve" smooth="yes"/>
			<point x="233" y="515"/>
			<point x="245" y="502"/>
		</contour>
		<contour>
			<point x="55" y="292" type="curve" smooth="yes"/>
			<point x="55" y="274"/>
			<point x="71" y="260"/>
			<point x="89" y="260" type="curve" smooth="yes"/>
			<point x="107" y="260"/>
			<point x="123" y="274"/>
			<point x="123" y="292" type="curve" smooth="yes"/>
			<point x="123" y="311"/>
			<point x="109" y="326"/>
			<point x="89" y="326" type="curve" smooth="yes"/>
			<point x="71" y="326"/>
			<point x="55" y="310"/>
		</contour>
		<contour>
			<point x="70" y="380" type="curve" smooth="yes"/>
			<point x="70" y="362"/>
			<point x="85" y="347"/>
			<point x="103" y="347" type="curve" smooth="yes"/>
			<point x="121" y="347"/>
			<point x="136" y="361"/>
			<point x="136" y="380" type="curve" smooth="yes"/>
			<point x="136" y="398"/>
			<point x="121" y="413"/>
			<point x="103" y="413" type="curve" smooth="yes"/>
			<point x="85" y="413"/>
			<point x="70" y="398"/>
		</contour>
		<contour>
			<point x="117" y="451" type="curve" smooth="yes"/>
			<point x="117" y="467"/>
			<point x="130" y="482"/>
			<point x="148" y="482" type="curve" smooth="yes"/>
			<point x="165" y="482"/>
			<point x="179" y="467"/>
			<point x="179" y="451" type="curve" smooth="yes"/>
			<point x="179" y="434"/>
			<point x="165" y="420"/>
			<point x="148" y="420" type="curve" smooth="yes"/>
			<point x="130" y="420"/>
			<point x="117" y="433"/>
		</contour>
		<contour>
			<point x="267" y="487" type="curve" smooth="yes"/>
			<point x="267" y="502"/>
			<point x="279" y="515"/>
			<point x="295" y="515" type="curve" smooth="yes"/>
			<point x="310" y="515"/>
			<point x="323" y="502"/>
			<point x="323" y="487" type="curve" smooth="yes"/>
			<point x="323" y="471"/>
			<point x="310" y="458"/>
			<point x="295" y="458" type="curve" smooth="yes"/>
			<point x="279" y="458"/>
			<point x="267" y="471"/>
		</contour>
		<contour>
			<point x="335" y="462" type="curve" smooth="yes"/>
			<point x="335" y="477"/>
			<point x="347" y="490"/>
			<point x="363" y="490" type="curve" smooth="yes"/>
			<point x="378" y="490"/>
			<point x="391" y="477"/>
			<point x="391" y="462" type="curve" smooth="yes"/>
			<point x="391" y="447"/>
			<point x="378" y="433"/>
			<point x="363" y="433" type="curve" smooth="yes"/>
			<point x="347" y="433"/>
			<point x="333" y="446"/>
		</contour>
		<contour>
			<point x="336" y="38" type="curve"/>
			<point x="336" y="53"/>
			<point x="348" y="66"/>
			<point x="363" y="66" type="curve" smooth="yes"/>
			<point x="377" y="66"/>
			<point x="390" y="53"/>
			<point x="390" y="38" type="curve" smooth="yes"/>
			<point x="390" y="24"/>
			<point x="377" y="11"/>
			<point x="363" y="11" type="curve" smooth="yes"/>
			<point x="348" y="11"/>
			<point x="336" y="24"/>
		</contour>
		<contour>
			<point x="335" y="383" type="curve" smooth="yes"/>
			<point x="335" y="398"/>
			<point x="347" y="411"/>
			<point x="363" y="411" type="curve" smooth="yes"/>
			<point x="378" y="411"/>
			<point x="391" y="398"/>
			<point x="391" y="383" type="curve" smooth="yes"/>
			<point x="391" y="368"/>
			<point x="378" y="354"/>
			<point x="363" y="354" type="curve" smooth="yes"/>
			<point x="347" y="354"/>
			<point x="333" y="367"/>
		</contour>
	</outline>
</glyph>
<glyph name="f" format="2">
	<advance width="348"/>
	<unicode hex="0066"/>
	<note>
		f
	</note>
	<outline>
		<contour>
			<point x="134" y="383" type="curve" smooth="yes"/>
			<point x="134" y="400"/>
			<point x="149" y="415"/>
			<point x="167" y="415" type="curve" smooth="yes"/>
			<point x="186" y="415"/>
			<point x="199" y="400"/>
			<point x="199" y="383" type="curve" smooth="yes"/>
			<point x="199" y="365"/>
			<point x="186" y="350"/>
			<point x="167" y="350" type="curve" smooth="yes"/>
			<point x="149" y="350"/>
			<point x="134" y="364"/>
		</contour>
		<contour>
			<point x="56" y="471" type="curve" smooth="yes"/>
			<point x="56" y="455"/>
			<point x="69" y="442"/>
			<point x="85" y="442" type="curve" smooth="yes"/>
			<point x="101" y="442"/>
			<point x="114" y="455"/>
			<point x="114" y="471" type="curve" smooth="yes"/>
			<point x="114" y="487"/>
			<point x="100" y="500"/>
			<point x="85" y="500" type="curve" smooth="yes"/>
			<point x="69" y="500"/>
			<point x="56" y="487"/>
		</contour>
		<contour>
			<point x="134" y="33" type="curve" smooth="yes"/>
			<point x="134" y="15"/>
			<point x="149" y="1"/>
			<point x="167" y="0" type="curve" smooth="yes"/>
			<point x="186" y="0"/>
			<point x="199" y="15"/>
			<point x="199" y="33" type="curve" smooth="yes"/>
			<point x="199" y="51"/>
			<point x="186" y="65"/>
			<point x="167" y="65" type="curve" smooth="yes"/>
			<point x="149" y="65"/>
			<point x="134" y="51"/>
		</contour>
		<contour>
			<point x="134" y="120" type="curve" smooth="yes"/>
			<point x="134" y="101"/>
			<point x="149" y="87"/>
			<point x="167" y="87" type="curve" smooth="yes"/>
			<point x="186" y="87"/>
			<point x="199" y="101"/>
			<point x="199" y="120" type="curve" smooth="yes"/>
			<point x="199" y="137"/>
			<point x="186" y="152"/>
			<point x="167" y="152" type="curve" smooth="yes"/>
			<point x="149" y="152"/>
			<point x="134" y="136"/>
		</contour>
		<contour>
			<point x="134" y="208" type="curve" smooth="yes"/>
			<point x="134" y="225"/>
			<point x="149" y="240"/>
			<point x="167" y="240" type="curve" smooth="yes"/>
			<point x="186" y="240"/>
			<point x="199" y="225"/>
			<point x="199" y="208" type="curve" smooth="yes"/>
			<point x="199" y="190"/>
			<point x="186" y="175"/>
			<point x="167" y="175" type="curve" smooth="yes"/>
			<point x="149" y="175"/>
			<point x="134" y="189"/>
		</contour>
		<contour>
			<point x="134" y="295" type="curve" smooth="yes"/>
			<point x="134" y="312"/>
			<point x="148" y="327"/>
			<point x="167" y="327" type="curve" smooth="yes"/>
			<point x="185" y="327"/>
			<point x="199" y="312"/>
			<point x="199" y="295" type="curve" smooth="yes"/>
			<point x="199" y="277"/>
			<point x="185" y="262"/>
			<point x="167" y="262" type="curve" smooth="yes"/>
			<point x="149" y="262"/>
			<point x="134" y="276"/>
		</contour>
		<contour>
			<point x="134" y="471" type="curve" smooth="yes"/>
			<point x="134" y="488"/>
			<point x="149" y="503"/>
			<point x="167" y="503" type="curve" smooth="yes"/>
			<point x="185" y="503"/>
			<point x="199" y="488"/>
			<point x="199" y="471" type="curve" smooth="yes"/>
			<point x="199" y="453"/>
			<point x="185" y="438"/>
			<point x="167" y="438" type="curve" smooth="yes"/>
			<point x="150" y="438"/>
			<point x="134" y="453"/>
		</contour>
		<contour>
			<point x="134" y="559" type="curve" smooth="yes"/>
			<point x="134" y="541"/>
			<point x="149" y="526"/>
			<point x="167" y="526" type="curve" smooth="yes"/>
			<point x="185" y="526"/>
			<point x="200" y="540"/>
			<point x="200" y="559" type="curve" smooth="yes"/>
			<point x="200" y="577"/>
			<point x="185" y="592"/>
			<point x="167" y="592" type="curve" smooth="yes"/>
			<point x="149" y="592"/>
			<point x="134" y="577"/>
		</contour>
		<contour>
			<point x="181" y="630" type="curve" smooth="yes"/>
			<point x="181" y="646"/>
			<point x="194" y="661"/>
			<point x="212" y="661" type="curve" smooth="yes"/>
			<point x="228" y="661"/>
			<point x="243" y="646"/>
			<point x="243" y="630" type="curve" smooth="yes"/>
			<point x="243" y="613"/>
			<point x="229" y="599"/>
			<point x="212" y="599" type="curve" smooth="yes"/>
			<point x="194" y="599"/>
			<point x="181" y="612"/>
		</contour>
		<contour>
			<point x="219" y="471" type="curve" smooth="yes"/>
			<point x="219" y="455"/>
			<point x="232" y="442"/>
			<point x="248" y="442" type="curve" smooth="yes"/>
			<point x="264" y="442"/>
			<point x="277" y="455"/>
			<point x="277" y="471" type="curve" smooth="yes"/>
			<point x="277" y="487"/>
			<point x="264" y="500"/>
			<point x="248" y="500" type="curve" smooth="yes"/>
			<point x="232" y="500"/>
			<point x="219" y="487"/>
		</contour>
		<contour>
			<point x="254" y="660" type="curve" smooth="yes"/>
			<point x="254" y="676"/>
			<point x="267" y="689"/>
			<point x="283" y="689" type="curve" smooth="yes"/>
			<point x="300" y="689"/>
			<point x="312" y="676"/>
			<point x="312" y="660" type="curve" smooth="yes"/>
			<point x="312" y="643"/>
			<point x="300" y="630"/>
			<point x="283" y="630" type="curve" smooth="yes"/>
			<point x="267" y="630"/>
			<point x="254" y="643"/>
		</contour>
		<contour>
			<point x="297" y="471" type="curve" smooth="yes"/>
			<point x="297" y="455"/>
			<point x="310" y="442"/>
			<point x="326" y="442" type="curve" smooth="yes"/>
			<point x="342" y="442"/>
			<point x="355" y="455"/>
			<point x="355" y="471" type="curve" smooth="yes"/>
			<point x="355" y="487"/>
			<point x="342" y="500"/>
			<point x="326" y="500" type="curve" smooth="yes"/>
			<point x="310" y="500"/>
			<point x="297" y="487"/>
		</contour>
		<contour>
			<point x="330" y="652" type="curve" smooth="yes"/>
			<point x="330" y="668"/>
			<point x="342" y="680"/>
			<point x="359" y="680" type="curve" smooth="yes"/>
			<point x="375" y="681"/>
			<point x="388" y="668"/>
			<point x="388" y="652" type="curve" smooth="yes"/>
			<point x="388" y="635"/>
			<point x="375" y="623"/>
			<point x="359" y="623" type="curve" smooth="yes"/>
			<point x="342" y="623"/>
			<point x="330" y="635"/>
		</contour>
	</outline>
</glyph>
<glyph name="g" format="2">
	<advance width="539"/>
	<unicode hex="0067"/>
	<guideline x="541" y="-173" angle="0"/>
	<note>
		g
	</note>
	<outline>
		<contour>
			<point x="269" y="487" type="curve" smooth="yes"/>
			<point x="269" y="502"/>
			<point x="282" y="515"/>
			<point x="298" y="515" type="curve" smooth="yes"/>
			<point x="313" y="515"/>
			<point x="326" y="502"/>
			<point x="326" y="487" type="curve" smooth="yes"/>
			<point x="326" y="471"/>
			<point x="313" y="458"/>
			<point x="298" y="458" type="curve" smooth="yes"/>
			<point x="282" y="458"/>
			<point x="269" y="471"/>
		</contour>
		<contour>
			<point x="52" y="206" type="curve" smooth="yes"/>
			<point x="52" y="187"/>
			<point x="68" y="171"/>
			<point x="87" y="171" type="curve" smooth="yes"/>
			<point x="107" y="171"/>
			<point x="122" y="187"/>
			<point x="122" y="206" type="curve" smooth="yes"/>
			<point x="122" y="225"/>
			<point x="106" y="241"/>
			<point x="87" y="241" type="curve" smooth="yes"/>
			<point x="68" y="241"/>
			<point x="52" y="227"/>
		</contour>
		<contour>
			<point x="52" y="298" type="curve" smooth="yes"/>
			<point x="52" y="280"/>
			<point x="68" y="263"/>
			<point x="87" y="263" type="curve" smooth="yes"/>
			<point x="106" y="263"/>
			<point x="122" y="279"/>
			<point x="122" y="298" type="curve" smooth="yes"/>
			<point x="122" y="317"/>
			<point x="107" y="333"/>
			<point x="87" y="333" type="curve" smooth="yes"/>
			<point x="68" y="333"/>
			<point x="52" y="317"/>
		</contour>
		<contour>
			<point x="69" y="118" type="curve" smooth="yes"/>
			<point x="69" y="99"/>
			<point x="84" y="85"/>
			<point x="102" y="85" type="curve" smooth="yes"/>
			<point x="120" y="85"/>
			<point x="135" y="100"/>
			<point x="135" y="118" type="curve" smooth="yes"/>
			<point x="135" y="137"/>
			<point x="120" y="151"/>
			<point x="102" y="151" type="curve" smooth="yes"/>
			<point x="84" y="151"/>
			<point x="69" y="136"/>
		</contour>
		<contour>
			<point x="69" y="386" type="curve" smooth="yes"/>
			<point x="69" y="368"/>
			<point x="84" y="353"/>
			<point x="102" y="353" type="curve" smooth="yes"/>
			<point x="120" y="353"/>
			<point x="135" y="367"/>
			<point x="135" y="386" type="curve" smooth="yes"/>
			<point x="135" y="404"/>
			<point x="120" y="419"/>
			<point x="102" y="419" type="curve" smooth="yes"/>
			<point x="84" y="419"/>
			<point x="69" y="404"/>
		</contour>
		<contour>
			<point x="108" y="-107" type="curve" smooth="yes"/>
			<point x="108" y="-91"/>
			<point x="122" y="-78"/>
			<point x="137" y="-78" type="curve" smooth="yes"/>
			<point x="153" y="-78"/>
			<point x="166" y="-91"/>
			<point x="166" y="-107" type="curve" smooth="yes"/>
			<point x="166" y="-122"/>
			<point x="153" y="-136"/>
			<point x="137" y="-136" type="curve" smooth="yes"/>
			<point x="121" y="-136"/>
			<point x="108" y="-122"/>
		</contour>
		<contour>
			<point x="118" y="453" type="curve" smooth="yes"/>
			<point x="118" y="469"/>
			<point x="131" y="484"/>
			<point x="149" y="484" type="curve" smooth="yes"/>
			<point x="165" y="484"/>
			<point x="180" y="469"/>
			<point x="180" y="453" type="curve" smooth="yes"/>
			<point x="180" y="436"/>
			<point x="166" y="422"/>
			<point x="149" y="422" type="curve" smooth="yes"/>
			<point x="131" y="422"/>
			<point x="118" y="435"/>
		</contour>
		<contour>
			<point x="129" y="54" type="curve" smooth="yes"/>
			<point x="129" y="72"/>
			<point x="142" y="85"/>
			<point x="160" y="85" type="curve" smooth="yes"/>
			<point x="177" y="85"/>
			<point x="191" y="71"/>
			<point x="191" y="54" type="curve" smooth="yes"/>
			<point x="191" y="38"/>
			<point x="176" y="23"/>
			<point x="160" y="23" type="curve" smooth="yes"/>
			<point x="142" y="23"/>
			<point x="129" y="38"/>
		</contour>
		<contour>
			<point x="176" y="-148" type="curve" smooth="yes"/>
			<point x="176" y="-132"/>
			<point x="190" y="-119"/>
			<point x="205" y="-119" type="curve" smooth="yes"/>
			<point x="221" y="-119"/>
			<point x="234" y="-132"/>
			<point x="234" y="-148" type="curve" smooth="yes"/>
			<point x="234" y="-163"/>
			<point x="221" y="-177"/>
			<point x="205" y="-177" type="curve" smooth="yes"/>
			<point x="189" y="-177"/>
			<point x="176" y="-163"/>
		</contour>
		<contour>
			<point x="192" y="487" type="curve" smooth="yes"/>
			<point x="192" y="502"/>
			<point x="205" y="515"/>
			<point x="220" y="515" type="curve" smooth="yes"/>
			<point x="236" y="515"/>
			<point x="248" y="502"/>
			<point x="248" y="487" type="curve" smooth="yes"/>
			<point x="248" y="471"/>
			<point x="236" y="458"/>
			<point x="220" y="458" type="curve" smooth="yes"/>
			<point x="205" y="458"/>
			<point x="192" y="471"/>
		</contour>
		<contour>
			<point x="205" y="27" type="curve" smooth="yes"/>
			<point x="205" y="43"/>
			<point x="218" y="56"/>
			<point x="233" y="56" type="curve" smooth="yes"/>
			<point x="249" y="56"/>
			<point x="261" y="43"/>
			<point x="261" y="27" type="curve" smooth="yes"/>
			<point x="261" y="12"/>
			<point x="249" y="-1"/>
			<point x="233" y="-1" type="curve" smooth="yes"/>
			<point x="218" y="-1"/>
			<point x="205" y="12"/>
		</contour>
		<contour>
			<point x="256" y="-152" type="curve" smooth="yes"/>
			<point x="256" y="-135"/>
			<point x="271" y="-121"/>
			<point x="287" y="-121" type="curve" smooth="yes"/>
			<point x="305" y="-121"/>
			<point x="318" y="-135"/>
			<point x="318" y="-152" type="curve" smooth="yes"/>
			<point x="318" y="-168"/>
			<point x="304" y="-183"/>
			<point x="287" y="-183" type="curve" smooth="yes"/>
			<point x="270" y="-183"/>
			<point x="256" y="-168"/>
		</contour>
		<contour>
			<point x="279" y="32" type="curve" smooth="yes"/>
			<point x="279" y="48"/>
			<point x="291" y="60"/>
			<point x="307" y="60" type="curve" smooth="yes"/>
			<point x="322" y="60"/>
			<point x="335" y="48"/>
			<point x="335" y="32" type="curve" smooth="yes"/>
			<point x="335" y="17"/>
			<point x="322" y="5"/>
			<point x="307" y="5" type="curve" smooth="yes"/>
			<point x="291" y="5"/>
			<point x="279" y="17"/>
		</contour>
		<contour>
			<point x="338" y="-126" type="curve" smooth="yes"/>
			<point x="338" y="-109"/>
			<point x="353" y="-95"/>
			<point x="369" y="-95" type="curve" smooth="yes"/>
			<point x="386" y="-95"/>
			<point x="400" y="-109"/>
			<point x="400" y="-126" type="curve" smooth="yes"/>
			<point x="400" y="-142"/>
			<point x="386" y="-157"/>
			<point x="369" y="-157" type="curve" smooth="yes"/>
			<point x="352" y="-157"/>
			<point x="338" y="-142"/>
		</contour>
		<contour>
			<point x="343" y="72" type="curve" smooth="yes"/>
			<point x="343" y="88"/>
			<point x="354" y="100"/>
			<point x="370" y="100" type="curve" smooth="yes"/>
			<point x="385" y="100"/>
			<point x="397" y="88"/>
			<point x="397" y="72" type="curve" smooth="yes"/>
			<point x="397" y="57"/>
			<point x="385" y="45"/>
			<point x="370" y="45" type="curve" smooth="yes"/>
			<point x="354" y="45"/>
			<point x="343" y="57"/>
		</contour>
		<contour>
			<point x="342" y="446" type="curve" smooth="yes"/>
			<point x="340" y="462"/>
			<point x="353" y="474"/>
			<point x="369" y="474" type="curve" smooth="yes"/>
			<point x="384" y="474"/>
			<point x="396" y="462"/>
			<point x="396" y="446" type="curve" smooth="yes"/>
			<point x="396" y="431"/>
			<point x="384" y="419"/>
			<point x="369" y="419" type="curve" smooth="yes"/>
			<point x="353" y="419"/>
			<point x="342" y="431"/>
		</contour>
		<contour>
			<point x="398" y="-64" type="curve" smooth="yes"/>
			<point x="398" y="-46"/>
			<point x="414" y="-31"/>
			<point x="431" y="-31" type="curve" smooth="yes"/>
			<point x="449" y="-31"/>
			<point x="463" y="-46"/>
			<point x="463" y="-64" type="curve" smooth="yes"/>
			<point x="463" y="-81"/>
			<point x="449" y="-96"/>
			<point x="431" y="-96" type="curve" smooth="yes"/>
			<point x="413" y="-96"/>
			<point x="398" y="-81"/>
		</contour>
		<contour>
			<point x="404" y="23" type="curve" smooth="yes"/>
			<point x="404" y="41"/>
			<point x="420" y="56"/>
			<point x="437" y="56" type="curve" smooth="yes"/>
			<point x="455" y="56"/>
			<point x="469" y="41"/>
			<point x="469" y="23" type="curve" smooth="yes"/>
			<point x="469" y="6"/>
			<point x="455" y="-9"/>
			<point x="437" y="-9" type="curve" smooth="yes"/>
			<point x="419" y="-9"/>
			<point x="404" y="5"/>
		</contour>
		<contour>
			<point x="404" y="113" type="curve" smooth="yes"/>
			<point x="404" y="132"/>
			<point x="419" y="146"/>
			<point x="437" y="146" type="curve" smooth="yes"/>
			<point x="456" y="146"/>
			<point x="469" y="131"/>
			<point x="469" y="113" type="curve" smooth="yes"/>
			<point x="469" y="96"/>
			<point x="456" y="81"/>
			<point x="437" y="81" type="curve" smooth="yes"/>
			<point x="419" y="81"/>
			<point x="404" y="96"/>
		</contour>
		<contour>
			<point x="404" y="202" type="curve" smooth="yes"/>
			<point x="404" y="221"/>
			<point x="419" y="235"/>
			<point x="437" y="235" type="curve" smooth="yes"/>
			<point x="455" y="235"/>
			<point x="469" y="220"/>
			<point x="469" y="202" type="curve" smooth="yes"/>
			<point x="469" y="185"/>
			<point x="455" y="170"/>
			<point x="437" y="170" type="curve" smooth="yes"/>
			<point x="418" y="170"/>
			<point x="404" y="185"/>
		</contour>
		<contour>
			<point x="404" y="291" type="curve" smooth="yes"/>
			<point x="404" y="310"/>
			<point x="419" y="324"/>
			<point x="437" y="324" type="curve" smooth="yes"/>
			<point x="456" y="324"/>
			<point x="469" y="309"/>
			<point x="469" y="291" type="curve" smooth="yes"/>
			<point x="469" y="274"/>
			<point x="456" y="259"/>
			<point x="437" y="259" type="curve" smooth="yes"/>
			<point x="419" y="259"/>
			<point x="404" y="274"/>
		</contour>
		<contour>
			<point x="404" y="380" type="curve" smooth="yes"/>
			<point x="404" y="364"/>
			<point x="419" y="348"/>
			<point x="437" y="348" type="curve" smooth="yes"/>
			<point x="456" y="348"/>
			<point x="469" y="363"/>
			<point x="469" y="380" type="curve" smooth="yes"/>
			<point x="469" y="399"/>
			<point x="456" y="413"/>
			<point x="437" y="413" type="curve" smooth="yes"/>
			<point x="419" y="413"/>
			<point x="404" y="399"/>
		</contour>
		<contour>
			<point x="424" y="467" type="curve" smooth="yes"/>
			<point x="424" y="449"/>
			<point x="439" y="435"/>
			<point x="457" y="435" type="curve" smooth="yes"/>
			<point x="476" y="435"/>
			<point x="489" y="449"/>
			<point x="489" y="467" type="curve" smooth="yes"/>
			<point x="489" y="485"/>
			<point x="476" y="500"/>
			<point x="457" y="500" type="curve" smooth="yes"/>
			<point x="439" y="499"/>
			<point x="424" y="485"/>
		</contour>
	</outline>
</glyph>
<glyph name="h" format="2">
	<advance width="499"/>
	<unicode hex="0068"/>
	<note>
		h
	</note>
	<outline>
		<contour>
			<point x="127" y="381" type="curve" smooth="yes"/>
			<point x="127" y="362"/>
			<point x="112" y="348"/>
			<point x="94" y="348" type="curve" smooth="yes"/>
			<point x="75" y="348"/>
			<point x="62" y="363"/>
			<point x="62" y="381" type="curve" smooth="yes"/>
			<point x="62" y="398"/>
			<point x="75" y="413"/>
			<point x="94" y="413" type="curve" smooth="yes"/>
			<point x="112" y="413"/>
			<point x="127" y="398"/>
		</contour>
		<contour>
			<point x="62" y="33" type="curve" smooth="yes"/>
			<point x="62" y="15"/>
			<point x="75" y="0"/>
			<point x="94" y="0" type="curve" smooth="yes"/>
			<point x="112" y="1"/>
			<point x="127" y="15"/>
			<point x="127" y="33" type="curve" smooth="yes"/>
			<point x="127" y="51"/>
			<point x="112" y="65"/>
			<point x="94" y="65" type="curve" smooth="yes"/>
			<point x="75" y="65"/>
			<point x="62" y="51"/>
		</contour>
		<contour>
			<point x="62" y="120" type="curve" smooth="yes"/>
			<point x="62" y="101"/>
			<point x="75" y="87"/>
			<point x="94" y="87" type="curve" smooth="yes"/>
			<point x="112" y="87"/>
			<point x="127" y="101"/>
			<point x="127" y="120" type="curve" smooth="yes"/>
			<point x="127" y="136"/>
			<point x="112" y="152"/>
			<point x="94" y="152" type="curve" smooth="yes"/>
			<point x="75" y="152"/>
			<point x="62" y="137"/>
		</contour>
		<contour>
			<point x="62" y="207" type="curve" smooth="yes"/>
			<point x="62" y="224"/>
			<point x="75" y="239"/>
			<point x="94" y="239" type="curve" smooth="yes"/>
			<point x="112" y="239"/>
			<point x="127" y="224"/>
			<point x="127" y="207" type="curve" smooth="yes"/>
			<point x="127" y="188"/>
			<point x="112" y="174"/>
			<point x="94" y="174" type="curve" smooth="yes"/>
			<point x="75" y="174"/>
			<point x="62" y="189"/>
		</contour>
		<contour>
			<point x="62" y="294" type="curve" smooth="yes"/>
			<point x="62" y="311"/>
			<point x="76" y="326"/>
			<point x="94" y="326" type="curve" smooth="yes"/>
			<point x="113" y="326"/>
			<point x="127" y="311"/>
			<point x="127" y="294" type="curve" smooth="yes"/>
			<point x="127" y="275"/>
			<point x="112" y="261"/>
			<point x="94" y="261" type="curve" smooth="yes"/>
			<point x="76" y="261"/>
			<point x="62" y="276"/>
		</contour>
		<contour>
			<point x="62" y="470" type="curve" smooth="yes"/>
			<point x="62" y="451"/>
			<point x="75" y="437"/>
			<point x="94" y="437" type="curve" smooth="yes"/>
			<point x="112" y="437"/>
			<point x="127" y="451"/>
			<point x="127" y="470" type="curve" smooth="yes"/>
			<point x="127" y="486"/>
			<point x="112" y="502"/>
			<point x="94" y="502" type="curve" smooth="yes"/>
			<point x="75" y="502"/>
			<point x="62" y="487"/>
		</contour>
		<contour>
			<point x="62" y="559" type="curve" smooth="yes"/>
			<point x="62" y="576"/>
			<point x="75" y="591"/>
			<point x="94" y="591" type="curve" smooth="yes"/>
			<point x="112" y="591"/>
			<point x="127" y="576"/>
			<point x="127" y="559" type="curve" smooth="yes"/>
			<point x="127" y="540"/>
			<point x="112" y="526"/>
			<point x="94" y="526" type="curve" smooth="yes"/>
			<point x="75" y="526"/>
			<point x="62" y="541"/>
		</contour>
		<contour>
			<point x="62" y="646" type="curve" smooth="yes"/>
			<point x="62" y="663"/>
			<point x="76" y="678"/>
			<point x="94" y="678" type="curve" smooth="yes"/>
			<point x="113" y="678"/>
			<point x="127" y="663"/>
			<point x="127" y="646" type="curve" smooth="yes"/>
			<point x="127" y="627"/>
			<point x="112" y="613"/>
			<point x="94" y="613" type="curve" smooth="yes"/>
			<point x="76" y="613"/>
			<point x="62" y="628"/>
		</contour>
		<contour>
			<point x="130" y="432" type="curve" smooth="yes"/>
			<point x="130" y="446"/>
			<point x="142" y="458"/>
			<point x="156" y="458" type="curve" smooth="yes"/>
			<point x="171" y="458"/>
			<point x="182" y="446"/>
			<point x="182" y="432" type="curve"/>
			<point x="184" y="417"/>
			<point x="171" y="405"/>
			<point x="156" y="405" type="curve" smooth="yes"/>
			<point x="142" y="405"/>
			<point x="130" y="417"/>
		</contour>
		<contour>
			<point x="187" y="479" type="curve" smooth="yes"/>
			<point x="187" y="493"/>
			<point x="199" y="505"/>
			<point x="213" y="505" type="curve" smooth="yes"/>
			<point x="228" y="505"/>
			<point x="239" y="493"/>
			<point x="239" y="479" type="curve"/>
			<point x="241" y="464"/>
			<point x="228" y="452"/>
			<point x="213" y="452" type="curve" smooth="yes"/>
			<point x="199" y="452"/>
			<point x="187" y="464"/>
		</contour>
		<contour>
			<point x="259" y="487" type="curve" smooth="yes"/>
			<point x="259" y="502"/>
			<point x="271" y="515"/>
			<point x="287" y="515" type="curve" smooth="yes"/>
			<point x="302" y="515"/>
			<point x="315" y="502"/>
			<point x="315" y="487" type="curve" smooth="yes"/>
			<point x="315" y="471"/>
			<point x="302" y="458"/>
			<point x="287" y="458" type="curve" smooth="yes"/>
			<point x="271" y="458"/>
			<point x="257" y="471"/>
		</contour>
		<contour>
			<point x="327" y="457" type="curve" smooth="yes"/>
			<point x="327" y="473"/>
			<point x="342" y="488"/>
			<point x="358" y="488" type="curve" smooth="yes"/>
			<point x="376" y="488"/>
			<point x="389" y="473"/>
			<point x="389" y="457" type="curve" smooth="yes"/>
			<point x="389" y="439"/>
			<point x="376" y="426"/>
			<point x="358" y="426" type="curve" smooth="yes"/>
			<point x="341" y="426"/>
			<point x="327" y="440"/>
		</contour>
		<contour>
			<point x="370" y="386" type="curve" smooth="yes"/>
			<point x="370" y="367"/>
			<point x="385" y="353"/>
			<point x="403" y="353" type="curve" smooth="yes"/>
			<point x="421" y="353"/>
			<point x="436" y="368"/>
			<point x="436" y="386" type="curve" smooth="yes"/>
			<point x="436" y="404"/>
			<point x="421" y="419"/>
			<point x="403" y="419" type="curve" smooth="yes"/>
			<point x="385" y="419"/>
			<point x="370" y="404"/>
		</contour>
		<contour>
			<point x="374" y="33" type="curve" smooth="yes"/>
			<point x="374" y="15"/>
			<point x="387" y="0"/>
			<point x="406" y="0" type="curve" smooth="yes"/>
			<point x="424" y="1"/>
			<point x="439" y="15"/>
			<point x="439" y="33" type="curve" smooth="yes"/>
			<point x="439" y="51"/>
			<point x="424" y="65"/>
			<point x="406" y="65" type="curve" smooth="yes"/>
			<point x="387" y="65"/>
			<point x="374" y="51"/>
		</contour>
		<contour>
			<point x="374" y="120" type="curve" smooth="yes"/>
			<point x="374" y="101"/>
			<point x="387" y="87"/>
			<point x="406" y="87" type="curve" smooth="yes"/>
			<point x="424" y="87"/>
			<point x="439" y="101"/>
			<point x="439" y="120" type="curve" smooth="yes"/>
			<point x="439" y="136"/>
			<point x="424" y="152"/>
			<point x="406" y="152" type="curve" smooth="yes"/>
			<point x="387" y="152"/>
			<point x="374" y="137"/>
		</contour>
		<contour>
			<point x="374" y="207" type="curve" smooth="yes"/>
			<point x="374" y="224"/>
			<point x="387" y="239"/>
			<point x="406" y="239" type="curve" smooth="yes"/>
			<point x="424" y="239"/>
			<point x="439" y="224"/>
			<point x="439" y="207" type="curve" smooth="yes"/>
			<point x="439" y="188"/>
			<point x="424" y="174"/>
			<point x="406" y="174" type="curve" smooth="yes"/>
			<point x="387" y="174"/>
			<point x="374" y="189"/>
		</contour>
		<contour>
			<point x="374" y="294" type="curve" smooth="yes"/>
			<point x="374" y="311"/>
			<point x="387" y="326"/>
			<point x="406" y="326" type="curve" smooth="yes"/>
			<point x="424" y="326"/>
			<point x="439" y="311"/>
			<point x="439" y="294" type="curve" smooth="yes"/>
			<point x="439" y="275"/>
			<point x="424" y="261"/>
			<point x="406" y="261" type="curve" smooth="yes"/>
			<point x="387" y="261"/>
			<point x="374" y="276"/>
		</contour>
	</outline>
</glyph>
<glyph name="i" format="2">
	<advance width="215"/>
	<unicode hex="0069"/>
	<note>
		i
	</note>
	<outline>
		<contour>
			<point x="70" y="605" type="curve" smooth="yes"/>
			<point x="70" y="584"/>
			<point x="87" y="567"/>
			<point x="107" y="567" type="curve" smooth="yes"/>
			<point x="127" y="567"/>
			<point x="145" y="584"/>
			<point x="145" y="605" type="curve" smooth="yes"/>
			<point x="145" y="625"/>
			<point x="127" y="642"/>
			<point x="107" y="642" type="curve" smooth="yes"/>
			<point x="87" y="642"/>
			<point x="70" y="625"/>
		</contour>
		<contour>
			<point x="75" y="33" type="curve" smooth="yes"/>
			<point x="75" y="15"/>
			<point x="88" y="0"/>
			<point x="107" y="0" type="curve" smooth="yes"/>
			<point x="125" y="1"/>
			<point x="140" y="15"/>
			<point x="140" y="33" type="curve" smooth="yes"/>
			<point x="140" y="51"/>
			<point x="125" y="65"/>
			<point x="107" y="65" type="curve" smooth="yes"/>
			<point x="88" y="65"/>
			<point x="75" y="51"/>
		</contour>
		<contour>
			<point x="75" y="120" type="curve" smooth="yes"/>
			<point x="75" y="101"/>
			<point x="88" y="87"/>
			<point x="107" y="87" type="curve" smooth="yes"/>
			<point x="125" y="87"/>
			<point x="140" y="101"/>
			<point x="140" y="120" type="curve" smooth="yes"/>
			<point x="140" y="136"/>
			<point x="125" y="152"/>
			<point x="107" y="152" type="curve" smooth="yes"/>
			<point x="88" y="152"/>
			<point x="75" y="137"/>
		</contour>
		<contour>
			<point x="75" y="207" type="curve" smooth="yes"/>
			<point x="75" y="224"/>
			<point x="88" y="239"/>
			<point x="107" y="239" type="curve" smooth="yes"/>
			<point x="125" y="239"/>
			<point x="140" y="224"/>
			<point x="140" y="207" type="curve" smooth="yes"/>
			<point x="140" y="188"/>
			<point x="125" y="174"/>
			<point x="107" y="174" type="curve" smooth="yes"/>
			<point x="88" y="174"/>
			<point x="75" y="189"/>
		</contour>
		<contour>
			<point x="75" y="294" type="curve" smooth="yes"/>
			<point x="75" y="311"/>
			<point x="89" y="326"/>
			<point x="107" y="326" type="curve" smooth="yes"/>
			<point x="126" y="326"/>
			<point x="140" y="311"/>
			<point x="140" y="294" type="curve" smooth="yes"/>
			<point x="140" y="275"/>
			<point x="125" y="261"/>
			<point x="107" y="261" type="curve" smooth="yes"/>
			<point x="89" y="261"/>
			<point x="75" y="276"/>
		</contour>
		<contour>
			<point x="75" y="381" type="curve" smooth="yes"/>
			<point x="75" y="398"/>
			<point x="88" y="413"/>
			<point x="107" y="413" type="curve" smooth="yes"/>
			<point x="125" y="413"/>
			<point x="140" y="398"/>
			<point x="140" y="381" type="curve" smooth="yes"/>
			<point x="140" y="362"/>
			<point x="125" y="348"/>
			<point x="107" y="348" type="curve" smooth="yes"/>
			<point x="88" y="348"/>
			<point x="75" y="363"/>
		</contour>
		<contour>
			<point x="75" y="468" type="curve" smooth="yes"/>
			<point x="75" y="485"/>
			<point x="89" y="500"/>
			<point x="107" y="500" type="curve" smooth="yes"/>
			<point x="125" y="500"/>
			<point x="140" y="485"/>
			<point x="140" y="468" type="curve" smooth="yes"/>
			<point x="140" y="450"/>
			<point x="124" y="435"/>
			<point x="107" y="435" type="curve" smooth="yes"/>
			<point x="89" y="435"/>
			<point x="75" y="450"/>
		</contour>
	</outline>
</glyph>
<glyph name="l" format="2">
	<advance width="225"/>
	<unicode hex="006C"/>
	<note>
		l
	</note>
	<outline>
		<contour>
			<point x="70" y="379" type="curve" smooth="yes"/>
			<point x="70" y="396"/>
			<point x="85" y="411"/>
			<point x="103" y="411" type="curve" smooth="yes"/>
			<point x="122" y="411"/>
			<point x="135" y="396"/>
			<point x="135" y="379" type="curve" smooth="yes"/>
			<point x="135" y="361"/>
			<point x="122" y="346"/>
			<point x="103" y="346" type="curve" smooth="yes"/>
			<point x="85" y="346"/>
			<point x="70" y="360"/>
		</contour>
		<contour>
			<point x="75" y="112" type="curve" smooth="yes"/>
			<point x="75" y="93"/>
			<point x="90" y="79"/>
			<point x="108" y="79" type="curve" smooth="yes"/>
			<point x="127" y="79"/>
			<point x="140" y="93"/>
			<point x="140" y="112" type="curve" smooth="yes"/>
			<point x="140" y="129"/>
			<point x="127" y="144"/>
			<point x="108" y="144" type="curve" smooth="yes"/>
			<point x="90" y="144"/>
			<point x="75" y="128"/>
		</contour>
		<contour>
			<point x="70" y="201" type="curve" smooth="yes"/>
			<point x="70" y="218"/>
			<point x="85" y="233"/>
			<point x="103" y="233" type="curve" smooth="yes"/>
			<point x="122" y="233"/>
			<point x="135" y="218"/>
			<point x="135" y="201" type="curve" smooth="yes"/>
			<point x="135" y="183"/>
			<point x="122" y="168"/>
			<point x="103" y="168" type="curve" smooth="yes"/>
			<point x="85" y="168"/>
			<point x="70" y="182"/>
		</contour>
		<contour>
			<point x="70" y="290" type="curve" smooth="yes"/>
			<point x="70" y="307"/>
			<point x="84" y="322"/>
			<point x="103" y="322" type="curve" smooth="yes"/>
			<point x="121" y="322"/>
			<point x="135" y="307"/>
			<point x="135" y="290" type="curve" smooth="yes"/>
			<point x="135" y="272"/>
			<point x="121" y="257"/>
			<point x="103" y="257" type="curve" smooth="yes"/>
			<point x="85" y="257"/>
			<point x="70" y="271"/>
		</contour>
		<contour>
			<point x="70" y="468" type="curve" smooth="yes"/>
			<point x="70" y="485"/>
			<point x="85" y="500"/>
			<point x="103" y="500" type="curve" smooth="yes"/>
			<point x="121" y="500"/>
			<point x="135" y="485"/>
			<point x="135" y="468" type="curve" smooth="yes"/>
			<point x="135" y="450"/>
			<point x="121" y="435"/>
			<point x="103" y="435" type="curve" smooth="yes"/>
			<point x="86" y="435"/>
			<point x="70" y="450"/>
		</contour>
		<contour>
			<point x="70" y="555" type="curve" smooth="yes"/>
			<point x="70" y="572"/>
			<point x="85" y="587"/>
			<point x="103" y="587" type="curve" smooth="yes"/>
			<point x="122" y="587"/>
			<point x="135" y="572"/>
			<point x="135" y="555" type="curve" smooth="yes"/>
			<point x="135" y="537"/>
			<point x="122" y="522"/>
			<point x="103" y="522" type="curve" smooth="yes"/>
			<point x="85" y="522"/>
			<point x="70" y="536"/>
		</contour>
		<contour>
			<point x="70" y="642" type="curve" smooth="yes"/>
			<point x="70" y="659"/>
			<point x="85" y="674"/>
			<point x="103" y="674" type="curve" smooth="yes"/>
			<point x="121" y="674"/>
			<point x="135" y="659"/>
			<point x="135" y="642" type="curve" smooth="yes"/>
			<point x="135" y="624"/>
			<point x="121" y="609"/>
			<point x="103" y="609" type="curve" smooth="yes"/>
			<point x="86" y="609"/>
			<point x="70" y="624"/>
		</contour>
		<contour>
			<point x="148" y="0" type="curve" smooth="yes"/>
			<point x="165" y="0"/>
			<point x="180" y="15"/>
			<point x="180" y="33" type="curve" smooth="yes"/>
			<point x="180" y="50"/>
			<point x="165" y="65"/>
			<point x="148" y="65" type="curve" smooth="yes"/>
			<point x="130" y="65"/>
			<point x="115" y="50"/>
			<point x="115" y="33" type="curve" smooth="yes"/>
			<point x="115" y="15"/>
			<point x="130" y="0"/>
		</contour>
	</outline>
</glyph>
<glyph name="n" format="2">
	<advance width="502"/>
	<unicode hex="006E"/>
	<note>
		n
	</note>
	<outline>
		<contour>
			<point x="130" y="381" type="curve" smooth="yes"/>
			<point x="130" y="362"/>
			<point x="115" y="348"/>
			<point x="97" y="348" type="curve" smooth="yes"/>
			<point x="78" y="348"/>
			<point x="65" y="363"/>
			<point x="65" y="381" type="curve" smooth="yes"/>
			<point x="65" y="398"/>
			<point x="78" y="413"/>
			<point x="97" y="413" type="curve" smooth="yes"/>
			<point x="115" y="413"/>
			<point x="130" y="398"/>
		</contour>
		<contour>
			<point x="45" y="468" type="curve" smooth="yes"/>
			<point x="45" y="485"/>
			<point x="59" y="500"/>
			<point x="77" y="500" type="curve" smooth="yes"/>
			<point x="95" y="500"/>
			<point x="110" y="485"/>
			<point x="110" y="468" type="curve" smooth="yes"/>
			<point x="110" y="450"/>
			<point x="94" y="435"/>
			<point x="77" y="435" type="curve" smooth="yes"/>
			<point x="59" y="435"/>
			<point x="45" y="450"/>
		</contour>
		<contour>
			<point x="65" y="33" type="curve" smooth="yes"/>
			<point x="65" y="15"/>
			<point x="78" y="0"/>
			<point x="97" y="0" type="curve" smooth="yes"/>
			<point x="115" y="1"/>
			<point x="130" y="15"/>
			<point x="130" y="33" type="curve" smooth="yes"/>
			<point x="130" y="51"/>
			<point x="115" y="65"/>
			<point x="97" y="65" type="curve" smooth="yes"/>
			<point x="78" y="65"/>
			<point x="65" y="51"/>
		</contour>
		<contour>
			<point x="65" y="120" type="curve" smooth="yes"/>
			<point x="65" y="101"/>
			<point x="78" y="87"/>
			<point x="97" y="87" type="curve" smooth="yes"/>
			<point x="115" y="87"/>
			<point x="130" y="101"/>
			<point x="130" y="120" type="curve" smooth="yes"/>
			<point x="130" y="136"/>
			<point x="115" y="152"/>
			<point x="97" y="152" type="curve" smooth="yes"/>
			<point x="78" y="152"/>
			<point x="65" y="137"/>
		</contour>
		<contour>
			<point x="65" y="207" type="curve" smooth="yes"/>
			<point x="65" y="224"/>
			<point x="78" y="239"/>
			<point x="97" y="239" type="curve" smooth="yes"/>
			<point x="115" y="239"/>
			<point x="130" y="224"/>
			<point x="130" y="207" type="curve" smooth="yes"/>
			<point x="130" y="188"/>
			<point x="115" y="174"/>
			<point x="97" y="174" type="curve" smooth="yes"/>
			<point x="78" y="174"/>
			<point x="65" y="189"/>
		</contour>
		<contour>
			<point x="65" y="294" type="curve" smooth="yes"/>
			<point x="65" y="311"/>
			<point x="79" y="326"/>
			<point x="97" y="326" type="curve" smooth="yes"/>
			<point x="116" y="326"/>
			<point x="130" y="311"/>
			<point x="130" y="294" type="curve" smooth="yes"/>
			<point x="130" y="275"/>
			<point x="115" y="261"/>
			<point x="97" y="261" type="curve" smooth="yes"/>
			<point x="79" y="261"/>
			<point x="65" y="276"/>
		</contour>
		<contour>
			<point x="133" y="432" type="curve" smooth="yes"/>
			<point x="133" y="446"/>
			<point x="145" y="458"/>
			<point x="159" y="458" type="curve" smooth="yes"/>
			<point x="174" y="458"/>
			<point x="185" y="445"/>
			<point x="185" y="432" type="curve" smooth="yes"/>
			<point x="185" y="417"/>
			<point x="174" y="405"/>
			<point x="159" y="405" type="curve" smooth="yes"/>
			<point x="145" y="405"/>
			<point x="133" y="417"/>
		</contour>
		<contour>
			<point x="190" y="479" type="curve" smooth="yes"/>
			<point x="190" y="493"/>
			<point x="202" y="505"/>
			<point x="216" y="505" type="curve" smooth="yes"/>
			<point x="231" y="505"/>
			<point x="242" y="493"/>
			<point x="242" y="479" type="curve" smooth="yes"/>
			<point x="242" y="464"/>
			<point x="231" y="452"/>
			<point x="216" y="452" type="curve" smooth="yes"/>
			<point x="202" y="452"/>
			<point x="190" y="464"/>
		</contour>
		<contour>
			<point x="262" y="487" type="curve" smooth="yes"/>
			<point x="262" y="502"/>
			<point x="274" y="515"/>
			<point x="290" y="515" type="curve" smooth="yes"/>
			<point x="305" y="515"/>
			<point x="318" y="502"/>
			<point x="318" y="487" type="curve" smooth="yes"/>
			<point x="318" y="471"/>
			<point x="305" y="458"/>
			<point x="290" y="458" type="curve" smooth="yes"/>
			<point x="274" y="458"/>
			<point x="260" y="471"/>
		</contour>
		<contour>
			<point x="330" y="457" type="curve" smooth="yes"/>
			<point x="330" y="473"/>
			<point x="345" y="488"/>
			<point x="361" y="488" type="curve" smooth="yes"/>
			<point x="379" y="488"/>
			<point x="392" y="473"/>
			<point x="392" y="457" type="curve" smooth="yes"/>
			<point x="392" y="439"/>
			<point x="379" y="426"/>
			<point x="361" y="426" type="curve" smooth="yes"/>
			<point x="344" y="426"/>
			<point x="330" y="440"/>
		</contour>
		<contour>
			<point x="373" y="386" type="curve" smooth="yes"/>
			<point x="373" y="367"/>
			<point x="388" y="353"/>
			<point x="406" y="353" type="curve" smooth="yes"/>
			<point x="424" y="353"/>
			<point x="439" y="368"/>
			<point x="439" y="386" type="curve" smooth="yes"/>
			<point x="439" y="404"/>
			<point x="424" y="419"/>
			<point x="406" y="419" type="curve" smooth="yes"/>
			<point x="388" y="419"/>
			<point x="373" y="404"/>
		</contour>
		<contour>
			<point x="377" y="33" type="curve" smooth="yes"/>
			<point x="377" y="15"/>
			<point x="390" y="0"/>
			<point x="409" y="0" type="curve" smooth="yes"/>
			<point x="427" y="1"/>
			<point x="442" y="15"/>
			<point x="442" y="33" type="curve" smooth="yes"/>
			<point x="442" y="51"/>
			<point x="427" y="65"/>
			<point x="409" y="65" type="curve" smooth="yes"/>
			<point x="390" y="65"/>
			<point x="377" y="51"/>
		</contour>
		<contour>
			<point x="377" y="120" type="curve" smooth="yes"/>
			<point x="377" y="101"/>
			<point x="390" y="87"/>
			<point x="409" y="87" type="curve" smooth="yes"/>
			<point x="427" y="87"/>
			<point x="442" y="101"/>
			<point x="442" y="120" type="curve" smooth="yes"/>
			<point x="442" y="136"/>
			<point x="427" y="152"/>
			<point x="409" y="152" type="curve" smooth="yes"/>
			<point x="390" y="152"/>
			<point x="377" y="137"/>
		</contour>
		<contour>
			<point x="377" y="207" type="curve" smooth="yes"/>
			<point x="377" y="224"/>
			<point x="390" y="239"/>
			<point x="409" y="239" type="curve" smooth="yes"/>
			<point x="427" y="239"/>
			<point x="442" y="224"/>
			<point x="442" y="207" type="curve" smooth="yes"/>
			<point x="442" y="188"/>
			<point x="427" y="174"/>
			<point x="409" y="174" type="curve" smooth="yes"/>
			<point x="390" y="174"/>
			<point x="377" y="189"/>
		</contour>
		<contour>
			<point x="377" y="294" type="curve" smooth="yes"/>
			<point x="377" y="311"/>
			<point x="390" y="326"/>
			<point x="409" y="326" type="curve" smooth="yes"/>
			<point x="427" y="326"/>
			<point x="442" y="311"/>
			<point x="442" y="294" type="curve" smooth="yes"/>
			<point x="442" y="275"/>
			<point x="427" y="261"/>
			<point x="409" y="261" type="curve" smooth="yes"/>
			<point x="390" y="261"/>
			<point x="377" y="276"/>
		</contour>
	</outline>
</glyph>
<glyph name="o" format="2">
	<advance width="512"/>
	<unicode hex="006F"/>
	<note>
		o
	</note>
	<outline>
		<contour>
			<point x="245" y="13" type="curve" smooth="yes"/>
			<point x="245" y="-2"/>
			<point x="233" y="-15"/>
			<point x="217" y="-15" type="curve" smooth="yes"/>
			<point x="202" y="-15"/>
			<point x="189" y="-2"/>
			<point x="189" y="13" type="curve" smooth="yes"/>
			<point x="189" y="29"/>
			<point x="202" y="42"/>
			<point x="217" y="42" type="curve" smooth="yes"/>
			<point x="233" y="42"/>
			<point x="245" y="29"/>
		</contour>
		<contour>
			<point x="55" y="208" type="curve" smooth="yes"/>
			<point x="55" y="190"/>
			<point x="71" y="174"/>
			<point x="89" y="174" type="curve" smooth="yes"/>
			<point x="109" y="174"/>
			<point x="123" y="189"/>
			<point x="123" y="208" type="curve" smooth="yes"/>
			<point x="123" y="226"/>
			<point x="107" y="240"/>
			<point x="89" y="240" type="curve" smooth="yes"/>
			<point x="71" y="240"/>
			<point x="55" y="226"/>
		</contour>
		<contour>
			<point x="70" y="120" type="curve" smooth="yes"/>
			<point x="70" y="102"/>
			<point x="85" y="87"/>
			<point x="103" y="87" type="curve" smooth="yes"/>
			<point x="121" y="87"/>
			<point x="136" y="102"/>
			<point x="136" y="120" type="curve" smooth="yes"/>
			<point x="136" y="139"/>
			<point x="121" y="153"/>
			<point x="103" y="153" type="curve" smooth="yes"/>
			<point x="85" y="153"/>
			<point x="70" y="138"/>
		</contour>
		<contour>
			<point x="117" y="49" type="curve" smooth="yes"/>
			<point x="117" y="67"/>
			<point x="130" y="80"/>
			<point x="148" y="80" type="curve" smooth="yes"/>
			<point x="165" y="80"/>
			<point x="179" y="66"/>
			<point x="179" y="49" type="curve" smooth="yes"/>
			<point x="179" y="33"/>
			<point x="165" y="18"/>
			<point x="148" y="18" type="curve" smooth="yes"/>
			<point x="130" y="18"/>
			<point x="117" y="33"/>
		</contour>
		<contour>
			<point x="267" y="13" type="curve" smooth="yes"/>
			<point x="267" y="29"/>
			<point x="279" y="42"/>
			<point x="295" y="42" type="curve" smooth="yes"/>
			<point x="310" y="42"/>
			<point x="323" y="29"/>
			<point x="323" y="13" type="curve" smooth="yes"/>
			<point x="323" y="-2"/>
			<point x="310" y="-15"/>
			<point x="295" y="-15" type="curve" smooth="yes"/>
			<point x="279" y="-15"/>
			<point x="267" y="-2"/>
		</contour>
		<contour>
			<point x="333" y="49" type="curve" smooth="yes"/>
			<point x="333" y="66"/>
			<point x="347" y="80"/>
			<point x="364" y="80" type="curve" smooth="yes"/>
			<point x="382" y="80"/>
			<point x="395" y="67"/>
			<point x="395" y="49" type="curve" smooth="yes"/>
			<point x="395" y="33"/>
			<point x="382" y="18"/>
			<point x="364" y="18" type="curve" smooth="yes"/>
			<point x="347" y="18"/>
			<point x="333" y="33"/>
		</contour>
		<contour>
			<point x="376" y="120" type="curve" smooth="yes"/>
			<point x="376" y="102"/>
			<point x="391" y="87"/>
			<point x="409" y="87" type="curve" smooth="yes"/>
			<point x="427" y="87"/>
			<point x="442" y="102"/>
			<point x="442" y="120" type="curve" smooth="yes"/>
			<point x="442" y="138"/>
			<point x="427" y="153"/>
			<point x="409" y="153" type="curve" smooth="yes"/>
			<point x="391" y="153"/>
			<point x="376" y="139"/>
		</contour>
		<contour>
			<point x="389" y="208" type="curve" smooth="yes"/>
			<point x="389" y="190"/>
			<point x="404" y="174"/>
			<point x="423" y="174" type="curve" smooth="yes"/>
			<point x="441" y="174"/>
			<point x="457" y="190"/>
			<point x="457" y="208" type="curve" smooth="yes"/>
			<point x="457" y="225"/>
			<point x="441" y="240"/>
			<point x="423" y="240" type="curve" smooth="yes"/>
			<point x="405" y="240"/>
			<point x="389" y="226"/>
		</contour>
		<contour>
			<point x="245" y="487" type="curve" smooth="yes"/>
			<point x="245" y="471"/>
			<point x="233" y="458"/>
			<point x="217" y="458" type="curve" smooth="yes"/>
			<point x="202" y="458"/>
			<point x="189" y="471"/>
			<point x="189" y="487" type="curve" smooth="yes"/>
			<point x="189" y="502"/>
			<point x="202" y="515"/>
			<point x="217" y="515" type="curve" smooth="yes"/>
			<point x="233" y="515"/>
			<point x="245" y="502"/>
		</contour>
		<contour>
			<point x="55" y="292" type="curve" smooth="yes"/>
			<point x="55" y="274"/>
			<point x="71" y="260"/>
			<point x="89" y="260" type="curve" smooth="yes"/>
			<point x="107" y="260"/>
			<point x="123" y="274"/>
			<point x="123" y="292" type="curve" smooth="yes"/>
			<point x="123" y="311"/>
			<point x="109" y="326"/>
			<point x="89" y="326" type="curve" smooth="yes"/>
			<point x="71" y="326"/>
			<point x="55" y="310"/>
		</contour>
		<contour>
			<point x="70" y="380" type="curve" smooth="yes"/>
			<point x="70" y="362"/>
			<point x="85" y="347"/>
			<point x="103" y="347" type="curve" smooth="yes"/>
			<point x="121" y="347"/>
			<point x="136" y="361"/>
			<point x="136" y="380" type="curve" smooth="yes"/>
			<point x="136" y="398"/>
			<point x="121" y="413"/>
			<point x="103" y="413" type="curve" smooth="yes"/>
			<point x="85" y="413"/>
			<point x="70" y="398"/>
		</contour>
		<contour>
			<point x="117" y="451" type="curve" smooth="yes"/>
			<point x="117" y="467"/>
			<point x="130" y="482"/>
			<point x="148" y="482" type="curve" smooth="yes"/>
			<point x="165" y="482"/>
			<point x="179" y="467"/>
			<point x="179" y="451" type="curve" smooth="yes"/>
			<point x="179" y="434"/>
			<point x="165" y="420"/>
			<point x="148" y="420" type="curve" smooth="yes"/>
			<point x="130" y="420"/>
			<point x="117" y="433"/>
		</contour>
		<contour>
			<point x="267" y="487" type="curve" smooth="yes"/>
			<point x="267" y="502"/>
			<point x="279" y="515"/>
			<point x="295" y="515" type="curve" smooth="yes"/>
			<point x="310" y="515"/>
			<point x="323" y="502"/>
			<point x="323" y="487" type="curve" smooth="yes"/>
			<point x="323" y="471"/>
			<point x="310" y="458"/>
			<point x="295" y="458" type="curve" smooth="yes"/>
			<point x="279" y="458"/>
			<point x="267" y="471"/>
		</contour>
		<contour>
			<point x="333" y="451" type="curve" smooth="yes"/>
			<point x="333" y="467"/>
			<point x="347" y="482"/>
			<point x="364" y="482" type="curve" smooth="yes"/>
			<point x="382" y="482"/>
			<point x="395" y="467"/>
			<point x="395" y="451" type="curve" smooth="yes"/>
			<point x="395" y="433"/>
			<point x="382" y="420"/>
			<point x="364" y="420" type="curve" smooth="yes"/>
			<point x="347" y="420"/>
			<point x="333" y="434"/>
		</contour>
		<contour>
			<point x="376" y="380" type="curve" smooth="yes"/>
			<point x="376" y="361"/>
			<point x="391" y="347"/>
			<point x="409" y="347" type="curve" smooth="yes"/>
			<point x="427" y="347"/>
			<point x="442" y="362"/>
			<point x="442" y="380" type="curve" smooth="yes"/>
			<point x="442" y="398"/>
			<point x="427" y="413"/>
			<point x="409" y="413" type="curve" smooth="yes"/>
			<point x="391" y="413"/>
			<point x="376" y="398"/>
		</contour>
		<contour>
			<point x="389" y="292" type="curve" smooth="yes"/>
			<point x="389" y="274"/>
			<point x="405" y="260"/>
			<point x="423" y="260" type="curve" smooth="yes"/>
			<point x="441" y="260"/>
			<point x="457" y="275"/>
			<point x="457" y="292" type="curve" smooth="yes"/>
			<point x="457" y="310"/>
			<point x="441" y="326"/>
			<point x="423" y="326" type="curve" smooth="yes"/>
			<point x="404" y="326"/>
			<point x="389" y="310"/>
		</contour>
	</outline>
</glyph>
<glyph name="q" format="2">
	<advance width="537"/>
	<unicode hex="0071"/>
	<note>
		q
	</note>
	<outline>
		<contour>
			<point x="267" y="487" type="curve" smooth="yes"/>
			<point x="267" y="502"/>
			<point x="280" y="515"/>
			<point x="296" y="515" type="curve" smooth="yes"/>
			<point x="311" y="515"/>
			<point x="324" y="502"/>
			<point x="324" y="487" type="curve" smooth="yes"/>
			<point x="324" y="471"/>
			<point x="311" y="458"/>
			<point x="296" y="458" type="curve" smooth="yes"/>
			<point x="280" y="458"/>
			<point x="267" y="471"/>
		</contour>
		<contour>
			<point x="50" y="203" type="curve" smooth="yes"/>
			<point x="50" y="184"/>
			<point x="66" y="168"/>
			<point x="85" y="168" type="curve" smooth="yes"/>
			<point x="105" y="168"/>
			<point x="120" y="184"/>
			<point x="120" y="203" type="curve" smooth="yes"/>
			<point x="120" y="222"/>
			<point x="104" y="238"/>
			<point x="85" y="238" type="curve" smooth="yes"/>
			<point x="66" y="238"/>
			<point x="50" y="224"/>
		</contour>
		<contour>
			<point x="50" y="295" type="curve" smooth="yes"/>
			<point x="50" y="277"/>
			<point x="66" y="260"/>
			<point x="85" y="260" type="curve" smooth="yes"/>
			<point x="104" y="260"/>
			<point x="120" y="276"/>
			<point x="120" y="295" type="curve" smooth="yes"/>
			<point x="120" y="314"/>
			<point x="105" y="330"/>
			<point x="85" y="330" type="curve" smooth="yes"/>
			<point x="66" y="330"/>
			<point x="50" y="314"/>
		</contour>
		<contour>
			<point x="67" y="114" type="curve" smooth="yes"/>
			<point x="67" y="96"/>
			<point x="82" y="81"/>
			<point x="100" y="81" type="curve" smooth="yes"/>
			<point x="118" y="81"/>
			<point x="133" y="96"/>
			<point x="133" y="114" type="curve" smooth="yes"/>
			<point x="133" y="133"/>
			<point x="118" y="147"/>
			<point x="100" y="147" type="curve" smooth="yes"/>
			<point x="82" y="147"/>
			<point x="67" y="132"/>
		</contour>
		<contour>
			<point x="67" y="386" type="curve" smooth="yes"/>
			<point x="67" y="368"/>
			<point x="82" y="353"/>
			<point x="100" y="353" type="curve" smooth="yes"/>
			<point x="118" y="353"/>
			<point x="133" y="367"/>
			<point x="133" y="386" type="curve" smooth="yes"/>
			<point x="133" y="404"/>
			<point x="118" y="419"/>
			<point x="100" y="419" type="curve" smooth="yes"/>
			<point x="82" y="419"/>
			<point x="67" y="404"/>
		</contour>
		<contour>
			<point x="116" y="453" type="curve" smooth="yes"/>
			<point x="116" y="469"/>
			<point x="129" y="484"/>
			<point x="147" y="484" type="curve" smooth="yes"/>
			<point x="163" y="484"/>
			<point x="178" y="469"/>
			<point x="178" y="453" type="curve" smooth="yes"/>
			<point x="178" y="436"/>
			<point x="164" y="422"/>
			<point x="147" y="422" type="curve" smooth="yes"/>
			<point x="129" y="422"/>
			<point x="116" y="435"/>
		</contour>
		<contour>
			<point x="127" y="43" type="curve" smooth="yes"/>
			<point x="127" y="61"/>
			<point x="140" y="74"/>
			<point x="158" y="74" type="curve" smooth="yes"/>
			<point x="175" y="74"/>
			<point x="189" y="60"/>
			<point x="189" y="43" type="curve" smooth="yes"/>
			<point x="189" y="27"/>
			<point x="174" y="12"/>
			<point x="158" y="12" type="curve" smooth="yes"/>
			<point x="140" y="12"/>
			<point x="127" y="27"/>
		</contour>
		<contour>
			<point x="190" y="487" type="curve" smooth="yes"/>
			<point x="190" y="502"/>
			<point x="203" y="515"/>
			<point x="218" y="515" type="curve" smooth="yes"/>
			<point x="234" y="515"/>
			<point x="246" y="502"/>
			<point x="246" y="487" type="curve" smooth="yes"/>
			<point x="246" y="471"/>
			<point x="234" y="458"/>
			<point x="218" y="458" type="curve" smooth="yes"/>
			<point x="203" y="458"/>
			<point x="190" y="471"/>
		</contour>
		<contour>
			<point x="201" y="13" type="curve" smooth="yes"/>
			<point x="201" y="29"/>
			<point x="214" y="42"/>
			<point x="229" y="42" type="curve" smooth="yes"/>
			<point x="245" y="42"/>
			<point x="259" y="29"/>
			<point x="257" y="13" type="curve" smooth="yes"/>
			<point x="257" y="-2"/>
			<point x="245" y="-15"/>
			<point x="229" y="-15" type="curve" smooth="yes"/>
			<point x="214" y="-15"/>
			<point x="201" y="-2"/>
		</contour>
		<contour>
			<point x="277" y="21" type="curve"/>
			<point x="275" y="36"/>
			<point x="288" y="48"/>
			<point x="303" y="48" type="curve" smooth="yes"/>
			<point x="317" y="48"/>
			<point x="329" y="36"/>
			<point x="329" y="21" type="curve" smooth="yes"/>
			<point x="329" y="7"/>
			<point x="317" y="-5"/>
			<point x="303" y="-5" type="curve" smooth="yes"/>
			<point x="288" y="-5"/>
			<point x="277" y="7"/>
		</contour>
		<contour>
			<point x="334" y="65" type="curve"/>
			<point x="332" y="80"/>
			<point x="345" y="92"/>
			<point x="360" y="92" type="curve" smooth="yes"/>
			<point x="374" y="92"/>
			<point x="386" y="80"/>
			<point x="386" y="65" type="curve" smooth="yes"/>
			<point x="386" y="51"/>
			<point x="374" y="39"/>
			<point x="360" y="39" type="curve" smooth="yes"/>
			<point x="345" y="39"/>
			<point x="334" y="51"/>
		</contour>
		<contour>
			<point x="340" y="446" type="curve" smooth="yes"/>
			<point x="338" y="462"/>
			<point x="351" y="474"/>
			<point x="367" y="474" type="curve" smooth="yes"/>
			<point x="382" y="474"/>
			<point x="394" y="462"/>
			<point x="394" y="446" type="curve" smooth="yes"/>
			<point x="394" y="431"/>
			<point x="382" y="419"/>
			<point x="367" y="419" type="curve" smooth="yes"/>
			<point x="351" y="419"/>
			<point x="340" y="431"/>
		</contour>
		<contour>
			<point x="402" y="-142" type="curve" smooth="yes"/>
			<point x="402" y="-124"/>
			<point x="418" y="-109"/>
			<point x="435" y="-109" type="curve" smooth="yes"/>
			<point x="453" y="-109"/>
			<point x="467" y="-124"/>
			<point x="467" y="-142" type="curve" smooth="yes"/>
			<point x="467" y="-159"/>
			<point x="453" y="-174"/>
			<point x="435" y="-174" type="curve" smooth="yes"/>
			<point x="417" y="-174"/>
			<point x="402" y="-159"/>
		</contour>
		<contour>
			<point x="402" y="-55" type="curve" smooth="yes"/>
			<point x="402" y="-36"/>
			<point x="417" y="-22"/>
			<point x="435" y="-22" type="curve" smooth="yes"/>
			<point x="454" y="-22"/>
			<point x="467" y="-37"/>
			<point x="467" y="-55" type="curve" smooth="yes"/>
			<point x="467" y="-72"/>
			<point x="454" y="-87"/>
			<point x="435" y="-87" type="curve" smooth="yes"/>
			<point x="417" y="-87"/>
			<point x="402" y="-72"/>
		</contour>
		<contour>
			<point x="402" y="32" type="curve" smooth="yes"/>
			<point x="402" y="50"/>
			<point x="418" y="65"/>
			<point x="435" y="65" type="curve" smooth="yes"/>
			<point x="453" y="65"/>
			<point x="467" y="50"/>
			<point x="467" y="32" type="curve" smooth="yes"/>
			<point x="467" y="15"/>
			<point x="453" y="0"/>
			<point x="435" y="0" type="curve" smooth="yes"/>
			<point x="417" y="0"/>
			<point x="402" y="15"/>
		</contour>
		<contour>
			<point x="402" y="119" type="curve" smooth="yes"/>
			<point x="402" y="138"/>
			<point x="417" y="152"/>
			<point x="435" y="152" type="curve" smooth="yes"/>
			<point x="454" y="152"/>
			<point x="467" y="137"/>
			<point x="467" y="119" type="curve" smooth="yes"/>
			<point x="467" y="102"/>
			<point x="454" y="87"/>
			<point x="435" y="87" type="curve" smooth="yes"/>
			<point x="417" y="87"/>
			<point x="402" y="102"/>
		</contour>
		<contour>
			<point x="402" y="206" type="curve" smooth="yes"/>
			<point x="402" y="225"/>
			<point x="417" y="239"/>
			<point x="435" y="239" type="curve" smooth="yes"/>
			<point x="453" y="239"/>
			<point x="467" y="224"/>
			<point x="467" y="206" type="curve" smooth="yes"/>
			<point x="467" y="189"/>
			<point x="453" y="174"/>
			<point x="435" y="174" type="curve" smooth="yes"/>
			<point x="416" y="174"/>
			<point x="402" y="189"/>
		</contour>
		<contour>
			<point x="402" y="293" type="curve" smooth="yes"/>
			<point x="402" y="312"/>
			<point x="417" y="326"/>
			<point x="435" y="326" type="curve" smooth="yes"/>
			<point x="454" y="326"/>
			<point x="467" y="311"/>
			<point x="467" y="293" type="curve" smooth="yes"/>
			<point x="467" y="276"/>
			<point x="454" y="261"/>
			<point x="435" y="261" type="curve" smooth="yes"/>
			<point x="417" y="261"/>
			<point x="402" y="276"/>
		</contour>
		<contour>
			<point x="402" y="380" type="curve" smooth="yes"/>
			<point x="402" y="364"/>
			<point x="417" y="348"/>
			<point x="435" y="348" type="curve" smooth="yes"/>
			<point x="454" y="348"/>
			<point x="467" y="363"/>
			<point x="467" y="380" type="curve" smooth="yes"/>
			<point x="467" y="399"/>
			<point x="454" y="413"/>
			<point x="435" y="413" type="curve" smooth="yes"/>
			<point x="417" y="413"/>
			<point x="402" y="399"/>
		</contour>
		<contour>
			<point x="422" y="467" type="curve" smooth="yes"/>
			<point x="422" y="449"/>
			<point x="437" y="435"/>
			<point x="455" y="435" type="curve" smooth="yes"/>
			<point x="474" y="435"/>
			<point x="487" y="449"/>
			<point x="487" y="467" type="curve" smooth="yes"/>
			<point x="487" y="485"/>
			<point x="474" y="500"/>
			<point x="455" y="500" type="curve" smooth="yes"/>
			<point x="437" y="499"/>
			<point x="422" y="485"/>
		</contour>
	</outline>
</glyph>
<glyph name="v" format="2">
	<advance width="503"/>
	<unicode hex="0076"/>
	<guideline x="51" y="555" angle="90"/>
	<guideline x="453" y="555" angle="90"/>
	<note>
		v
	</note>
	<outline>
		<contour>
			<point x="50" y="466" type="curve" smooth="yes"/>
			<point x="50" y="446"/>
			<point x="67" y="430"/>
			<point x="85" y="430" type="curve" smooth="yes"/>
			<point x="104" y="430"/>
			<point x="120" y="446"/>
			<point x="120" y="466" type="curve" smooth="yes"/>
			<point x="120" y="484"/>
			<point x="104" y="500"/>
			<point x="85" y="500" type="curve" smooth="yes"/>
			<point x="67" y="500"/>
			<point x="50" y="484"/>
		</contour>
		<contour>
			<point x="224" y="20" type="curve" smooth="yes"/>
			<point x="224" y="4"/>
			<point x="236" y="-8"/>
			<point x="252" y="-8" type="curve" smooth="yes"/>
			<point x="268" y="-8"/>
			<point x="280" y="4"/>
			<point x="280" y="20" type="curve" smooth="yes"/>
			<point x="280" y="35"/>
			<point x="268" y="48"/>
			<point x="252" y="48" type="curve" smooth="yes"/>
			<point x="236" y="48"/>
			<point x="224" y="36"/>
		</contour>
		<contour>
			<point x="70" y="378" type="curve" smooth="yes"/>
			<point x="70" y="359"/>
			<point x="85" y="344"/>
			<point x="103" y="344" type="curve" smooth="yes"/>
			<point x="122" y="344"/>
			<point x="138" y="359"/>
			<point x="138" y="378" type="curve" smooth="yes"/>
			<point x="138" y="397"/>
			<point x="121" y="412"/>
			<point x="103" y="412" type="curve" smooth="yes"/>
			<point x="85" y="412"/>
			<point x="70" y="397"/>
		</contour>
		<contour>
			<point x="91" y="297" type="curve" smooth="yes"/>
			<point x="91" y="279"/>
			<point x="106" y="264"/>
			<point x="123" y="264" type="curve" smooth="yes"/>
			<point x="141" y="264"/>
			<point x="157" y="279"/>
			<point x="157" y="297" type="curve" smooth="yes"/>
			<point x="157" y="315"/>
			<point x="141" y="330"/>
			<point x="123" y="330" type="curve" smooth="yes"/>
			<point x="106" y="330"/>
			<point x="91" y="315"/>
		</contour>
		<contour>
			<point x="112" y="215" type="curve" smooth="yes"/>
			<point x="112" y="197"/>
			<point x="126" y="183"/>
			<point x="143" y="183" type="curve" smooth="yes"/>
			<point x="161" y="183"/>
			<point x="176" y="197"/>
			<point x="176" y="215" type="curve" smooth="yes"/>
			<point x="176" y="233"/>
			<point x="161" y="247"/>
			<point x="143" y="247" type="curve" smooth="yes"/>
			<point x="126" y="247"/>
			<point x="112" y="233"/>
		</contour>
		<contour>
			<point x="134" y="138" type="curve" smooth="yes"/>
			<point x="134" y="122"/>
			<point x="148" y="108"/>
			<point x="163" y="108" type="curve" smooth="yes"/>
			<point x="179" y="108"/>
			<point x="194" y="122"/>
			<point x="194" y="138" type="curve" smooth="yes"/>
			<point x="194" y="154"/>
			<point x="180" y="168"/>
			<point x="163" y="168" type="curve" smooth="yes"/>
			<point x="148" y="168"/>
			<point x="134" y="154"/>
		</contour>
		<contour>
			<point x="155" y="64" type="curve" smooth="yes"/>
			<point x="155" y="48"/>
			<point x="168" y="35"/>
			<point x="183" y="35" type="curve" smooth="yes"/>
			<point x="199" y="35"/>
			<point x="213" y="48"/>
			<point x="213" y="64" type="curve" smooth="yes"/>
			<point x="213" y="79"/>
			<point x="199" y="93"/>
			<point x="183" y="93" type="curve" smooth="yes"/>
			<point x="168" y="93"/>
			<point x="155" y="80"/>
		</contour>
		<contour>
			<point x="453" y="466" type="curve" smooth="yes"/>
			<point x="453" y="484"/>
			<point x="437" y="500"/>
			<point x="419" y="500" type="curve" smooth="yes"/>
			<point x="400" y="500"/>
			<point x="385" y="485"/>
			<point x="385" y="466" type="curve" smooth="yes"/>
			<point x="385" y="447"/>
			<point x="400" y="432"/>
			<point x="419" y="432" type="curve" smooth="yes"/>
			<point x="437" y="432"/>
			<point x="453" y="447"/>
		</contour>
		<contour>
			<point x="433" y="379" type="curve" smooth="yes"/>
			<point x="433" y="397"/>
			<point x="418" y="412"/>
			<point x="401" y="412" type="curve" smooth="yes"/>
			<point x="384" y="412"/>
			<point x="367" y="397"/>
			<point x="367" y="379" type="curve" smooth="yes"/>
			<point x="367" y="361"/>
			<point x="384" y="346"/>
			<point x="401" y="346" type="curve" smooth="yes"/>
			<point x="418" y="346"/>
			<point x="433" y="361"/>
		</contour>
		<contour>
			<point x="411" y="296" type="curve" smooth="yes"/>
			<point x="411" y="313"/>
			<point x="398" y="328"/>
			<point x="380" y="328" type="curve" smooth="yes"/>
			<point x="362" y="328"/>
			<point x="347" y="314"/>
			<point x="347" y="296" type="curve" smooth="yes"/>
			<point x="347" y="278"/>
			<point x="362" y="264"/>
			<point x="380" y="264" type="curve" smooth="yes"/>
			<point x="397" y="264"/>
			<point x="411" y="278"/>
		</contour>
		<contour>
			<point x="389" y="215" type="curve" smooth="yes"/>
			<point x="389" y="233"/>
			<point x="376" y="246"/>
			<point x="359" y="246" type="curve" smooth="yes"/>
			<point x="341" y="246"/>
			<point x="327" y="233"/>
			<point x="327" y="215" type="curve" smooth="yes"/>
			<point x="327" y="197"/>
			<point x="341" y="184"/>
			<point x="359" y="184" type="curve" smooth="yes"/>
			<point x="376" y="184"/>
			<point x="389" y="197"/>
		</contour>
		<contour>
			<point x="366" y="138" type="curve" smooth="yes"/>
			<point x="366" y="153"/>
			<point x="353" y="167"/>
			<point x="338" y="167" type="curve" smooth="yes"/>
			<point x="321" y="167"/>
			<point x="308" y="154"/>
			<point x="308" y="138" type="curve" smooth="yes"/>
			<point x="308" y="122"/>
			<point x="323" y="109"/>
			<point x="338" y="109" type="curve" smooth="yes"/>
			<point x="353" y="109"/>
			<point x="366" y="122"/>
		</contour>
		<contour>
			<point x="344" y="64" type="curve" smooth="yes"/>
			<point x="344" y="79"/>
			<point x="331" y="92"/>
			<point x="317" y="92" type="curve" smooth="yes"/>
			<point x="302" y="92"/>
			<point x="288" y="79"/>
			<point x="288" y="64" type="curve" smooth="yes"/>
			<point x="288" y="49"/>
			<point x="302" y="36"/>
			<point x="317" y="36" type="curve" smooth="yes"/>
			<point x="331" y="36"/>
			<point x="344" y="49"/>
		</contour>
	</outline>
</glyph>
<glyph name="ntilde" format="2">
	<advance width="502"/>
	<unicode hex="00F1"/>
	<outline>
		<contour>
			<point x="68" y="611" type="curve" smooth="yes"/>
			<point x="68" y="626"/>
			<point x="80" y="637"/>
			<point x="94" y="637" type="curve" smooth="yes"/>
			<point x="109" y="637"/>
			<point x="120" y="624"/>
			<point x="120" y="611" type="curve" smooth="yes"/>
			<point x="120" y="595"/>
			<point x="107" y="585"/>
			<point x="94" y="585" type="curve" smooth="yes"/>
			<point x="78" y="585"/>
			<point x="68" y="597"/>
		</contour>
		<contour>
			<point x="134" y="637" type="curve" smooth="yes"/>
			<point x="134" y="652"/>
			<point x="149" y="666"/>
			<point x="164" y="665" type="curve" smooth="yes"/>
			<point x="179" y="665"/>
			<point x="192" y="650"/>
			<point x="192" y="636" type="curve" smooth="yes"/>
			<point x="191" y="620"/>
			<point x="178" y="608"/>
			<point x="162" y="608" type="curve" smooth="yes"/>
			<point x="147" y="608"/>
			<point x="134" y="620"/>
		</contour>
		<contour>
			<point x="209" y="619" type="curve" smooth="yes"/>
			<point x="209" y="636"/>
			<point x="223" y="651"/>
			<point x="241" y="651" type="curve" smooth="yes"/>
			<point x="259" y="651"/>
			<point x="273" y="636"/>
			<point x="273" y="619" type="curve" smooth="yes"/>
			<point x="273" y="600"/>
			<point x="259" y="587"/>
			<point x="241" y="587" type="curve" smooth="yes"/>
			<point x="222" y="587"/>
			<point x="209" y="602"/>
		</contour>
		<contour>
			<point x="415" y="627" type="curve" smooth="yes"/>
			<point x="415" y="612"/>
			<point x="401" y="601"/>
			<point x="387" y="601" type="curve" smooth="yes"/>
			<point x="372" y="601"/>
			<point x="361" y="614"/>
			<point x="361" y="627" type="curve" smooth="yes"/>
			<point x="361" y="643"/>
			<point x="374" y="655"/>
			<point x="387" y="655" type="curve" smooth="yes"/>
			<point x="403" y="655"/>
			<point x="415" y="642"/>
		</contour>
		<contour>
			<point x="347" y="601" type="curve" smooth="yes"/>
			<point x="347" y="586"/>
			<point x="334" y="573"/>
			<point x="319" y="573" type="curve" smooth="yes"/>
			<point x="304" y="573"/>
			<point x="290" y="588"/>
			<point x="290" y="602" type="curve" smooth="yes"/>
			<point x="290" y="618"/>
			<point x="303" y="631"/>
			<point x="319" y="631" type="curve" smooth="yes"/>
			<point x="334" y="630"/>
			<point x="348" y="617"/>
		</contour>
		<component base="n"/>
	</outline>
</glyph>
<glyph name="oacute" format="2">
	<advance width="512"/>
	<unicode hex="00F3"/>
	<note>
		oacute
	</note>
	<outline>
		<contour>
			<point x="180" y="604" type="curve" smooth="yes"/>
			<point x="180" y="618"/>
			<point x="192" y="630"/>
			<point x="206" y="630" type="curve" smooth="yes"/>
			<point x="220" y="630"/>
			<point x="232" y="617"/>
			<point x="232" y="604" type="curve" smooth="yes"/>
			<point x="232" y="590"/>
			<point x="220" y="578"/>
			<point x="206" y="578" type="curve" smooth="yes"/>
			<point x="192" y="578"/>
			<point x="180" y="590"/>
		</contour>
		<contour>
			<point x="240" y="633" type="curve" smooth="yes"/>
			<point x="240" y="648"/>
			<point x="254" y="661"/>
			<point x="268" y="661" type="curve" smooth="yes"/>
			<point x="283" y="661"/>
			<point x="296" y="648"/>
			<point x="296" y="633" type="curve" smooth="yes"/>
			<point x="296" y="618"/>
			<point x="283" y="605"/>
			<point x="268" y="605" type="curve" smooth="yes"/>
			<point x="254" y="605"/>
			<point x="240" y="618"/>
		</contour>
		<contour>
			<point x="304" y="662" type="curve" smooth="yes"/>
			<point x="304" y="678"/>
			<point x="318" y="692"/>
			<point x="334" y="692" type="curve" smooth="yes"/>
			<point x="350" y="692"/>
			<point x="364" y="678"/>
			<point x="364" y="662" type="curve" smooth="yes"/>
			<point x="364" y="645"/>
			<point x="351" y="632"/>
			<point x="334" y="632" type="curve" smooth="yes"/>
			<point x="318" y="632"/>
			<point x="304" y="645"/>
		</contour>
		<component base="o"/>
	</outline>
</glyph>
<glyph name=".notdef" format="2">
	<advance width="500"/>
	<note>
		.notdef
	</note>
	<outline>
		<contour>
			<point x="93" y="740" type="line"/>
			<point x="93" y="-260" type="line"/>
			<point x="410" y="-260" type="line"/>
			<point x="410" y="740" type="line"/>
		</contour>
		<contour>
			<point x="333" y="-191" type="line"/>
			<point x="167" y="-191" type="line"/>
			<point x="167" y="-158" type="line"/>
			<point x="237" y="-111" type="line"/>
			<point x="167" y="-111" type="line"/>
			<point x="167" y="-78" type="line"/>
			<point x="333" y="-78" type="line"/>
			<point x="333" y="-111" type="line"/>
			<point x="301" y="-111" type="line"/>
			<point x="231" y="-158" type="line"/>
			<point x="333" y="-158" type="line"/>
		</contour>
		<contour>
			<point x="333" y="-55" type="line"/>
			<point x="167" y="-55" type="line"/>
			<point x="167" y="58" type="line"/>
			<point x="333" y="58" type="line"/>
		</contour>
		<contour>
			<point x="333" y="118" type="line"/>
			<point x="167" y="118" type="line"/>
			<point x="167" y="231" type="line"/>
			<point x="200" y="231" type="line"/>
			<point x="200" y="151" type="line"/>
			<point x="300" y="151" type="line"/>
			<point x="300" y="198" type="line"/>
			<point x="267" y="198" type="line"/>
			<point x="267" y="175" type="line"/>
			<point x="233" y="175" type="line"/>
			<point x="233" y="231" type="line"/>
			<point x="333" y="231" type="line"/>
		</contour>
		<contour>
			<point x="333" y="253" type="line"/>
			<point x="167" y="253" type="line"/>
			<point x="167" y="287" type="line"/>
			<point x="300" y="287" type="line"/>
			<point x="300" y="353" type="line"/>
			<point x="333" y="353" type="line"/>
		</contour>
		<contour>
			<point x="267" y="310" type="line"/>
			<point x="167" y="310" type="line"/>
			<point x="167" y="343" type="line"/>
			<point x="233" y="343" type="line"/>
			<point x="233" y="380" type="line"/>
			<point x="167" y="380" type="line"/>
			<point x="167" y="413" type="line"/>
			<point x="333" y="413" type="line"/>
			<point x="333" y="380" type="line"/>
			<point x="267" y="380" type="line"/>
		</contour>
		<contour>
			<point x="333" y="440" type="line"/>
			<point x="167" y="440" type="line"/>
			<point x="167" y="544" type="line"/>
			<point x="267" y="544" type="line"/>
			<point x="267" y="474" type="line"/>
			<point x="333" y="474" type="line"/>
		</contour>
		<contour>
			<point x="333" y="570" type="line"/>
			<point x="167" y="570" type="line"/>
			<point x="167" y="603" type="line"/>
			<point x="233" y="603" type="line"/>
			<point x="233" y="640" type="line"/>
			<point x="168" y="640" type="line"/>
			<point x="168" y="673" type="line"/>
			<point x="333" y="673" type="line"/>
			<point x="333" y="640" type="line"/>
			<point x="267" y="640" type="line"/>
			<point x="267" y="603" type="line"/>
			<point x="333" y="603" type="line"/>
		</contour>
		<contour>
			<point x="200" y="25" type="line"/>
			<point x="200" y="-22" type="line"/>
			<point x="300" y="-22" type="line"/>
			<point x="300" y="25" type="line"/>
		</contour>
		<contour>
			<point x="200" y="510" type="line"/>
			<point x="200" y="474" type="line"/>
			<point x="233" y="474" type="line"/>
			<point x="233" y="510" type="line"/>
		</contour>
	</outline>
</glyph>
